<?xml version="1.0" encoding="UTF-8" standalone="no"?>
<!DOCTYPE svg PUBLIC "-//W3C//DTD SVG 1.1//EN"
 "http://www.w3.org/Graphics/SVG/1.1/DTD/svg11.dtd">
<!-- Generated by graphviz version 2.38.0 (20140413.2041)
 -->
<!-- Title: %3 Pages: 1 -->
<svg width="1637pt" height="701pt"
 viewBox="0.00 0.00 1636.84 701.45" xmlns="http://www.w3.org/2000/svg" xmlns:xlink="http://www.w3.org/1999/xlink">
<g id="graph0" class="graph" transform="scale(1 1) rotate(0) translate(4 697.452)">
<title>%3</title>
<polygon fill="white" stroke="none" points="-4,4 -4,-697.452 1632.84,-697.452 1632.84,4 -4,4"/>
<!-- 2873973043015362144 -->
<g id="node1" class="node"><title>2873973043015362144</title>
<polygon fill="none" stroke="black" points="187.922,-332.481 53.577,-332.481 53.577,-296.481 187.922,-296.481 187.922,-332.481"/>
<text text-anchor="middle" x="120.75" y="-310.281" font-family="Times,serif" font-size="14.00">(&#39;transpose&#45;#0&#39;, 0, 2)</text>
</g>
<!-- 6368535238537193491 -->
<g id="node25" class="node"><title>6368535238537193491</title>
<ellipse fill="none" stroke="black" cx="127.75" cy="-415.986" rx="24.9604" ry="24.9604"/>
<text text-anchor="middle" x="127.75" y="-411.786" font-family="Times,serif" font-size="14.00">add</text>
</g>
<!-- 2873973043015362144&#45;&gt;6368535238537193491 -->
<g id="edge18" class="edge"><title>2873973043015362144&#45;&gt;6368535238537193491</title>
<path fill="none" stroke="black" d="M121.969,-332.814C122.894,-345.969 124.197,-364.479 125.331,-380.602"/>
<polygon fill="black" stroke="black" points="121.853,-381.042 126.046,-390.772 128.836,-380.551 121.853,-381.042"/>
</g>
<!-- 2905498539316115171 -->
<g id="node2" class="node"><title>2905498539316115171</title>
<ellipse fill="none" stroke="black" cx="111.75" cy="-212.977" rx="47.51" ry="47.51"/>
<text text-anchor="middle" x="111.75" y="-208.777" font-family="Times,serif" font-size="14.00">transpose</text>
</g>
<!-- 2905498539316115171&#45;&gt;2873973043015362144 -->
<g id="edge1" class="edge"><title>2905498539316115171&#45;&gt;2873973043015362144</title>
<path fill="none" stroke="black" d="M115.96,-260.524C116.752,-269.287 117.557,-278.184 118.275,-286.119"/>
<polygon fill="black" stroke="black" points="114.804,-286.599 119.191,-296.243 121.775,-285.968 114.804,-286.599"/>
</g>
<!-- 6395123063266469523 -->
<g id="node3" class="node"><title>6395123063266469523</title>
<polygon fill="none" stroke="black" points="129.75,-129.472 -0.250667,-129.472 -0.250667,-93.4715 129.75,-93.4715 129.75,-129.472"/>
<text text-anchor="middle" x="64.7497" y="-107.272" font-family="Times,serif" font-size="14.00">(&#39;wrapped&#45;#1&#39;, 2, 0)</text>
</g>
<!-- 6395123063266469523&#45;&gt;2905498539316115171 -->
<g id="edge2" class="edge"><title>6395123063266469523&#45;&gt;2905498539316115171</title>
<path fill="none" stroke="black" d="M72.9365,-129.804C77.0048,-138.417 82.1577,-149.326 87.3684,-160.358"/>
<polygon fill="black" stroke="black" points="84.3008,-162.059 91.7365,-169.606 90.6303,-159.069 84.3008,-162.059"/>
</g>
<!-- &#45;2813651404324755245 -->
<g id="node45" class="node"><title>&#45;2813651404324755245</title>
<ellipse fill="none" stroke="black" cx="145.75" cy="-596.472" rx="24.9604" ry="24.9604"/>
<text text-anchor="middle" x="145.75" y="-592.272" font-family="Times,serif" font-size="14.00">add</text>
</g>
<!-- 6395123063266469523&#45;&gt;&#45;2813651404324755245 -->
<g id="edge41" class="edge"><title>6395123063266469523&#45;&gt;&#45;2813651404324755245</title>
<path fill="none" stroke="black" d="M59.0788,-129.729C48.2622,-164.229 25.7497,-244.34 25.7497,-313.481 25.7497,-313.481 25.7497,-313.481 25.7497,-416.986 25.7497,-472.865 34.9224,-490.272 67.7497,-535.491 80.3662,-552.871 99.4022,-567.646 115.51,-578.183"/>
<polygon fill="black" stroke="black" points="113.771,-581.224 124.098,-583.591 117.501,-575.301 113.771,-581.224"/>
</g>
<!-- 4821033378384513154 -->
<g id="node4" class="node"><title>4821033378384513154</title>
<polygon fill="none" stroke="black" points="476.268,-535.491 375.231,-535.491 375.231,-499.491 476.268,-499.491 476.268,-535.491"/>
<text text-anchor="middle" x="425.75" y="-513.291" font-family="Times,serif" font-size="14.00">(&#39;add&#45;#2&#39;, 0, 0)</text>
</g>
<!-- &#45;3217625898121764559 -->
<g id="node5" class="node"><title>&#45;3217625898121764559</title>
<ellipse fill="none" stroke="black" cx="425.75" cy="-415.986" rx="24.9604" ry="24.9604"/>
<text text-anchor="middle" x="425.75" y="-411.786" font-family="Times,serif" font-size="14.00">add</text>
</g>
<!-- &#45;3217625898121764559&#45;&gt;4821033378384513154 -->
<g id="edge3" class="edge"><title>&#45;3217625898121764559&#45;&gt;4821033378384513154</title>
<path fill="none" stroke="black" d="M425.75,-441.074C425.75,-455.607 425.75,-474.163 425.75,-489.232"/>
<polygon fill="black" stroke="black" points="422.25,-489.481 425.75,-499.481 429.25,-489.481 422.25,-489.481"/>
</g>
<!-- 6395125585660467169 -->
<g id="node6" class="node"><title>6395125585660467169</title>
<polygon fill="none" stroke="black" points="507.75,-129.472 377.749,-129.472 377.749,-93.4715 507.75,-93.4715 507.75,-129.472"/>
<text text-anchor="middle" x="442.75" y="-107.272" font-family="Times,serif" font-size="14.00">(&#39;wrapped&#45;#1&#39;, 0, 0)</text>
</g>
<!-- 6395125585660467169&#45;&gt;&#45;3217625898121764559 -->
<g id="edge4" class="edge"><title>6395125585660467169&#45;&gt;&#45;3217625898121764559</title>
<path fill="none" stroke="black" d="M420.605,-129.698C410.257,-139.075 398.887,-151.588 392.75,-165.472 362.685,-233.482 365.058,-260.257 382.75,-332.481 387.396,-351.45 397.245,-370.905 406.346,-386.155"/>
<polygon fill="black" stroke="black" points="403.623,-388.406 411.863,-395.065 409.574,-384.721 403.623,-388.406"/>
</g>
<!-- 8330560641609005185 -->
<g id="node50" class="node"><title>8330560641609005185</title>
<ellipse fill="none" stroke="black" cx="449.75" cy="-212.977" rx="47.51" ry="47.51"/>
<text text-anchor="middle" x="449.75" y="-208.777" font-family="Times,serif" font-size="14.00">transpose</text>
</g>
<!-- 6395125585660467169&#45;&gt;8330560641609005185 -->
<g id="edge49" class="edge"><title>6395125585660467169&#45;&gt;8330560641609005185</title>
<path fill="none" stroke="black" d="M443.969,-129.804C444.481,-137.083 445.108,-146.001 445.759,-155.247"/>
<polygon fill="black" stroke="black" points="442.276,-155.617 446.469,-165.347 449.259,-155.126 442.276,-155.617"/>
</g>
<!-- 2873973043017692242 -->
<g id="node7" class="node"><title>2873973043017692242</title>
<polygon fill="none" stroke="black" points="525.922,-332.481 391.577,-332.481 391.577,-296.481 525.922,-296.481 525.922,-332.481"/>
<text text-anchor="middle" x="458.75" y="-310.281" font-family="Times,serif" font-size="14.00">(&#39;transpose&#45;#0&#39;, 0, 0)</text>
</g>
<!-- 2873973043017692242&#45;&gt;&#45;3217625898121764559 -->
<g id="edge5" class="edge"><title>2873973043017692242&#45;&gt;&#45;3217625898121764559</title>
<path fill="none" stroke="black" d="M453.002,-332.814C448.506,-346.371 442.123,-365.615 436.665,-382.073"/>
<polygon fill="black" stroke="black" points="433.237,-381.291 433.411,-391.884 439.881,-383.495 433.237,-381.291"/>
</g>
<!-- 6395123063268799621 -->
<g id="node8" class="node"><title>6395123063268799621</title>
<polygon fill="none" stroke="black" points="697.75,-129.472 567.749,-129.472 567.749,-93.4715 697.75,-93.4715 697.75,-129.472"/>
<text text-anchor="middle" x="632.75" y="-107.272" font-family="Times,serif" font-size="14.00">(&#39;wrapped&#45;#1&#39;, 2, 2)</text>
</g>
<!-- 3541966382853844721 -->
<g id="node20" class="node"><title>3541966382853844721</title>
<ellipse fill="none" stroke="black" cx="615.75" cy="-415.986" rx="24.9604" ry="24.9604"/>
<text text-anchor="middle" x="615.75" y="-411.786" font-family="Times,serif" font-size="14.00">add</text>
</g>
<!-- 6395123063268799621&#45;&gt;3541966382853844721 -->
<g id="edge15" class="edge"><title>6395123063268799621&#45;&gt;3541966382853844721</title>
<path fill="none" stroke="black" d="M617.538,-129.829C609.891,-139.61 601.303,-152.452 596.75,-165.472 572.203,-235.663 574.242,-259.181 586.75,-332.481 589.703,-349.792 595.908,-368.303 601.823,-383.395"/>
<polygon fill="black" stroke="black" points="598.626,-384.824 605.631,-392.772 605.111,-382.19 598.626,-384.824"/>
</g>
<!-- &#45;1863238797985659583 -->
<g id="node27" class="node"><title>&#45;1863238797985659583</title>
<ellipse fill="none" stroke="black" cx="653.75" cy="-212.977" rx="47.51" ry="47.51"/>
<text text-anchor="middle" x="653.75" y="-208.777" font-family="Times,serif" font-size="14.00">transpose</text>
</g>
<!-- 6395123063268799621&#45;&gt;&#45;1863238797985659583 -->
<g id="edge21" class="edge"><title>6395123063268799621&#45;&gt;&#45;1863238797985659583</title>
<path fill="none" stroke="black" d="M636.408,-129.804C637.995,-137.325 639.952,-146.597 641.973,-156.173"/>
<polygon fill="black" stroke="black" points="638.599,-157.14 644.089,-166.201 645.449,-155.694 638.599,-157.14"/>
</g>
<!-- 8489942519548496630 -->
<g id="node9" class="node"><title>8489942519548496630</title>
<ellipse fill="none" stroke="black" cx="632.75" cy="-28.7358" rx="28.9735" ry="28.9735"/>
<text text-anchor="middle" x="632.75" y="-24.5358" font-family="Times,serif" font-size="14.00">ones</text>
</g>
<!-- 8489942519548496630&#45;&gt;6395123063268799621 -->
<g id="edge6" class="edge"><title>8489942519548496630&#45;&gt;6395123063268799621</title>
<path fill="none" stroke="black" d="M632.75,-57.5204C632.75,-65.7664 632.75,-74.7908 632.75,-83.0158"/>
<polygon fill="black" stroke="black" points="629.25,-83.2352 632.75,-93.2352 636.25,-83.2353 629.25,-83.2352"/>
</g>
<!-- &#45;8626740574921666310 -->
<g id="node10" class="node"><title>&#45;8626740574921666310</title>
<ellipse fill="none" stroke="black" cx="442.75" cy="-28.7358" rx="28.9735" ry="28.9735"/>
<text text-anchor="middle" x="442.75" y="-24.5358" font-family="Times,serif" font-size="14.00">ones</text>
</g>
<!-- &#45;8626740574921666310&#45;&gt;6395125585660467169 -->
<g id="edge7" class="edge"><title>&#45;8626740574921666310&#45;&gt;6395125585660467169</title>
<path fill="none" stroke="black" d="M442.75,-57.5204C442.75,-65.7664 442.75,-74.7908 442.75,-83.0158"/>
<polygon fill="black" stroke="black" points="439.25,-83.2352 442.75,-93.2352 446.25,-83.2353 439.25,-83.2352"/>
</g>
<!-- 6395126846857465992 -->
<g id="node11" class="node"><title>6395126846857465992</title>
<polygon fill="none" stroke="black" points="1074.75,-332.481 944.749,-332.481 944.749,-296.481 1074.75,-296.481 1074.75,-332.481"/>
<text text-anchor="middle" x="1009.75" y="-310.281" font-family="Times,serif" font-size="14.00">(&#39;wrapped&#45;#1&#39;, 1, 0)</text>
</g>
<!-- &#45;9054879079915821006 -->
<g id="node35" class="node"><title>&#45;9054879079915821006</title>
<ellipse fill="none" stroke="black" cx="1006.75" cy="-415.986" rx="47.51" ry="47.51"/>
<text text-anchor="middle" x="1006.75" y="-411.786" font-family="Times,serif" font-size="14.00">transpose</text>
</g>
<!-- 6395126846857465992&#45;&gt;&#45;9054879079915821006 -->
<g id="edge30" class="edge"><title>6395126846857465992&#45;&gt;&#45;9054879079915821006</title>
<path fill="none" stroke="black" d="M1009.23,-332.814C1009.01,-340.093 1008.74,-349.011 1008.46,-358.257"/>
<polygon fill="black" stroke="black" points="1004.96,-358.256 1008.16,-368.357 1011.96,-358.467 1004.96,-358.256"/>
</g>
<!-- 7828821775840183264 -->
<g id="node38" class="node"><title>7828821775840183264</title>
<ellipse fill="none" stroke="black" cx="866.75" cy="-415.986" rx="24.9604" ry="24.9604"/>
<text text-anchor="middle" x="866.75" y="-411.786" font-family="Times,serif" font-size="14.00">add</text>
</g>
<!-- 6395126846857465992&#45;&gt;7828821775840183264 -->
<g id="edge33" class="edge"><title>6395126846857465992&#45;&gt;7828821775840183264</title>
<path fill="none" stroke="black" d="M985.167,-332.587C960.2,-349.96 921.567,-376.842 895.27,-395.141"/>
<polygon fill="black" stroke="black" points="893.071,-392.407 886.862,-400.992 897.069,-398.153 893.071,-392.407"/>
</g>
<!-- &#45;1578829920378787765 -->
<g id="node12" class="node"><title>&#45;1578829920378787765</title>
<ellipse fill="none" stroke="black" cx="1009.75" cy="-212.977" rx="28.9735" ry="28.9735"/>
<text text-anchor="middle" x="1009.75" y="-208.777" font-family="Times,serif" font-size="14.00">ones</text>
</g>
<!-- &#45;1578829920378787765&#45;&gt;6395126846857465992 -->
<g id="edge8" class="edge"><title>&#45;1578829920378787765&#45;&gt;6395126846857465992</title>
<path fill="none" stroke="black" d="M1009.75,-241.959C1009.75,-255.748 1009.75,-272.315 1009.75,-286.031"/>
<polygon fill="black" stroke="black" points="1006.25,-286.312 1009.75,-296.312 1013.25,-286.312 1006.25,-286.312"/>
</g>
<!-- 4821033378383348105 -->
<g id="node13" class="node"><title>4821033378383348105</title>
<polygon fill="none" stroke="black" points="931.268,-693.452 830.231,-693.452 830.231,-657.452 931.268,-657.452 931.268,-693.452"/>
<text text-anchor="middle" x="880.75" y="-671.252" font-family="Times,serif" font-size="14.00">(&#39;add&#45;#2&#39;, 0, 1)</text>
</g>
<!-- &#45;4216439022426050334 -->
<g id="node14" class="node"><title>&#45;4216439022426050334</title>
<ellipse fill="none" stroke="black" cx="880.75" cy="-596.472" rx="24.9604" ry="24.9604"/>
<text text-anchor="middle" x="880.75" y="-592.272" font-family="Times,serif" font-size="14.00">add</text>
</g>
<!-- &#45;4216439022426050334&#45;&gt;4821033378383348105 -->
<g id="edge9" class="edge"><title>&#45;4216439022426050334&#45;&gt;4821033378383348105</title>
<path fill="none" stroke="black" d="M880.75,-621.829C880.75,-629.792 880.75,-638.692 880.75,-646.875"/>
<polygon fill="black" stroke="black" points="877.25,-647.08 880.75,-657.08 884.25,-647.08 877.25,-647.08"/>
</g>
<!-- 2873973043016527193 -->
<g id="node15" class="node"><title>2873973043016527193</title>
<polygon fill="none" stroke="black" points="1071.92,-535.491 937.577,-535.491 937.577,-499.491 1071.92,-499.491 1071.92,-535.491"/>
<text text-anchor="middle" x="1004.75" y="-513.291" font-family="Times,serif" font-size="14.00">(&#39;transpose&#45;#0&#39;, 0, 1)</text>
</g>
<!-- 2873973043016527193&#45;&gt;&#45;4216439022426050334 -->
<g id="edge10" class="edge"><title>2873973043016527193&#45;&gt;&#45;4216439022426050334</title>
<path fill="none" stroke="black" d="M977.23,-535.576C957.341,-547.923 930.511,-564.579 910.193,-577.193"/>
<polygon fill="black" stroke="black" points="908.294,-574.252 901.644,-582.5 911.986,-580.199 908.294,-574.252"/>
</g>
<!-- 6395125585661632218 -->
<g id="node16" class="node"><title>6395125585661632218</title>
<polygon fill="none" stroke="black" points="865.75,-129.472 735.749,-129.472 735.749,-93.4715 865.75,-93.4715 865.75,-129.472"/>
<text text-anchor="middle" x="800.75" y="-107.272" font-family="Times,serif" font-size="14.00">(&#39;wrapped&#45;#1&#39;, 0, 1)</text>
</g>
<!-- 6395125585661632218&#45;&gt;&#45;4216439022426050334 -->
<g id="edge11" class="edge"><title>6395125585661632218&#45;&gt;&#45;4216439022426050334</title>
<path fill="none" stroke="black" d="M795.592,-129.496C785.637,-163.906 764.75,-244.348 764.75,-313.481 764.75,-313.481 764.75,-313.481 764.75,-416.986 764.75,-472.865 774.504,-489.855 806.75,-535.491 818.477,-552.088 835.996,-566.572 851.045,-577.147"/>
<polygon fill="black" stroke="black" points="849.314,-580.202 859.557,-582.908 853.237,-574.404 849.314,-580.202"/>
</g>
<!-- &#45;1318065041226737104 -->
<g id="node49" class="node"><title>&#45;1318065041226737104</title>
<ellipse fill="none" stroke="black" cx="850.75" cy="-212.977" rx="47.51" ry="47.51"/>
<text text-anchor="middle" x="850.75" y="-208.777" font-family="Times,serif" font-size="14.00">transpose</text>
</g>
<!-- 6395125585661632218&#45;&gt;&#45;1318065041226737104 -->
<g id="edge47" class="edge"><title>6395125585661632218&#45;&gt;&#45;1318065041226737104</title>
<path fill="none" stroke="black" d="M809.459,-129.804C813.874,-138.591 819.491,-149.768 825.148,-161.027"/>
<polygon fill="black" stroke="black" points="822.055,-162.666 829.672,-170.03 828.309,-159.523 822.055,-162.666"/>
</g>
<!-- 6395123063267634572 -->
<g id="node17" class="node"><title>6395123063267634572</title>
<polygon fill="none" stroke="black" points="1418.75,-332.481 1288.75,-332.481 1288.75,-296.481 1418.75,-296.481 1418.75,-332.481"/>
<text text-anchor="middle" x="1353.75" y="-310.281" font-family="Times,serif" font-size="14.00">(&#39;wrapped&#45;#1&#39;, 2, 1)</text>
</g>
<!-- 7655424402494836596 -->
<g id="node33" class="node"><title>7655424402494836596</title>
<ellipse fill="none" stroke="black" cx="1206.75" cy="-415.986" rx="24.9604" ry="24.9604"/>
<text text-anchor="middle" x="1206.75" y="-411.786" font-family="Times,serif" font-size="14.00">add</text>
</g>
<!-- 6395123063267634572&#45;&gt;7655424402494836596 -->
<g id="edge27" class="edge"><title>6395123063267634572&#45;&gt;7655424402494836596</title>
<path fill="none" stroke="black" d="M1328.48,-332.587C1302.55,-350.136 1262.3,-377.387 1235.25,-395.694"/>
<polygon fill="black" stroke="black" points="1233.29,-392.796 1226.97,-401.3 1237.21,-398.593 1233.29,-392.796"/>
</g>
<!-- &#45;4810480459328533170 -->
<g id="node41" class="node"><title>&#45;4810480459328533170</title>
<ellipse fill="none" stroke="black" cx="1351.75" cy="-415.986" rx="47.51" ry="47.51"/>
<text text-anchor="middle" x="1351.75" y="-411.786" font-family="Times,serif" font-size="14.00">transpose</text>
</g>
<!-- 6395123063267634572&#45;&gt;&#45;4810480459328533170 -->
<g id="edge36" class="edge"><title>6395123063267634572&#45;&gt;&#45;4810480459328533170</title>
<path fill="none" stroke="black" d="M1353.4,-332.814C1353.26,-340.093 1353.08,-349.011 1352.89,-358.257"/>
<polygon fill="black" stroke="black" points="1349.39,-358.289 1352.69,-368.357 1356.39,-358.429 1349.39,-358.289"/>
</g>
<!-- &#45;8457059789788751961 -->
<g id="node18" class="node"><title>&#45;8457059789788751961</title>
<ellipse fill="none" stroke="black" cx="1353.75" cy="-212.977" rx="28.9735" ry="28.9735"/>
<text text-anchor="middle" x="1353.75" y="-208.777" font-family="Times,serif" font-size="14.00">ones</text>
</g>
<!-- &#45;8457059789788751961&#45;&gt;6395123063267634572 -->
<g id="edge12" class="edge"><title>&#45;8457059789788751961&#45;&gt;6395123063267634572</title>
<path fill="none" stroke="black" d="M1353.75,-241.959C1353.75,-255.748 1353.75,-272.315 1353.75,-286.031"/>
<polygon fill="black" stroke="black" points="1350.25,-286.312 1353.75,-296.312 1357.25,-286.312 1350.25,-286.312"/>
</g>
<!-- 4821035900780840898 -->
<g id="node19" class="node"><title>4821035900780840898</title>
<polygon fill="none" stroke="black" points="666.268,-535.491 565.231,-535.491 565.231,-499.491 666.268,-499.491 666.268,-535.491"/>
<text text-anchor="middle" x="615.75" y="-513.291" font-family="Times,serif" font-size="14.00">(&#39;add&#45;#2&#39;, 2, 2)</text>
</g>
<!-- 3541966382853844721&#45;&gt;4821035900780840898 -->
<g id="edge13" class="edge"><title>3541966382853844721&#45;&gt;4821035900780840898</title>
<path fill="none" stroke="black" d="M615.75,-441.074C615.75,-455.607 615.75,-474.163 615.75,-489.232"/>
<polygon fill="black" stroke="black" points="612.25,-489.481 615.75,-499.481 619.25,-489.481 612.25,-489.481"/>
</g>
<!-- 2873975565414019986 -->
<g id="node21" class="node"><title>2873975565414019986</title>
<polygon fill="none" stroke="black" points="729.922,-332.481 595.577,-332.481 595.577,-296.481 729.922,-296.481 729.922,-332.481"/>
<text text-anchor="middle" x="662.75" y="-310.281" font-family="Times,serif" font-size="14.00">(&#39;transpose&#45;#0&#39;, 2, 2)</text>
</g>
<!-- 2873975565414019986&#45;&gt;3541966382853844721 -->
<g id="edge14" class="edge"><title>2873975565414019986&#45;&gt;3541966382853844721</title>
<path fill="none" stroke="black" d="M654.563,-332.814C647.967,-346.778 638.521,-366.777 630.599,-383.548"/>
<polygon fill="black" stroke="black" points="627.25,-382.443 626.144,-392.98 633.58,-385.433 627.25,-382.443"/>
</g>
<!-- 6395126846856300943 -->
<g id="node22" class="node"><title>6395126846856300943</title>
<polygon fill="none" stroke="black" points="1569.75,-129.472 1439.75,-129.472 1439.75,-93.4715 1569.75,-93.4715 1569.75,-129.472"/>
<text text-anchor="middle" x="1504.75" y="-107.272" font-family="Times,serif" font-size="14.00">(&#39;wrapped&#45;#1&#39;, 1, 1)</text>
</g>
<!-- &#45;1408041137538455377 -->
<g id="node30" class="node"><title>&#45;1408041137538455377</title>
<ellipse fill="none" stroke="black" cx="1480.75" cy="-415.986" rx="24.9604" ry="24.9604"/>
<text text-anchor="middle" x="1480.75" y="-411.786" font-family="Times,serif" font-size="14.00">add</text>
</g>
<!-- 6395126846856300943&#45;&gt;&#45;1408041137538455377 -->
<g id="edge25" class="edge"><title>6395126846856300943&#45;&gt;&#45;1408041137538455377</title>
<path fill="none" stroke="black" d="M1500.99,-129.576C1498.85,-139.919 1496.3,-153.398 1494.75,-165.472 1484.95,-241.888 1482.01,-332.343 1481.13,-380.595"/>
<polygon fill="black" stroke="black" points="1477.62,-380.739 1480.96,-390.795 1484.62,-380.853 1477.62,-380.739"/>
</g>
<!-- 6793650305173436671 -->
<g id="node46" class="node"><title>6793650305173436671</title>
<ellipse fill="none" stroke="black" cx="1551.75" cy="-212.977" rx="47.51" ry="47.51"/>
<text text-anchor="middle" x="1551.75" y="-208.777" font-family="Times,serif" font-size="14.00">transpose</text>
</g>
<!-- 6395126846856300943&#45;&gt;6793650305173436671 -->
<g id="edge43" class="edge"><title>6395126846856300943&#45;&gt;6793650305173436671</title>
<path fill="none" stroke="black" d="M1512.94,-129.804C1517,-138.417 1522.16,-149.326 1527.37,-160.358"/>
<polygon fill="black" stroke="black" points="1524.3,-162.059 1531.74,-169.606 1530.63,-159.069 1524.3,-162.059"/>
</g>
<!-- 2365756063449588076 -->
<g id="node23" class="node"><title>2365756063449588076</title>
<ellipse fill="none" stroke="black" cx="1504.75" cy="-28.7358" rx="28.9735" ry="28.9735"/>
<text text-anchor="middle" x="1504.75" y="-24.5358" font-family="Times,serif" font-size="14.00">ones</text>
</g>
<!-- 2365756063449588076&#45;&gt;6395126846856300943 -->
<g id="edge16" class="edge"><title>2365756063449588076&#45;&gt;6395126846856300943</title>
<path fill="none" stroke="black" d="M1504.75,-57.5204C1504.75,-65.7664 1504.75,-74.7908 1504.75,-83.0158"/>
<polygon fill="black" stroke="black" points="1501.25,-83.2352 1504.75,-93.2352 1508.25,-83.2353 1501.25,-83.2352"/>
</g>
<!-- 4821033378382183056 -->
<g id="node24" class="node"><title>4821033378382183056</title>
<polygon fill="none" stroke="black" points="178.268,-535.491 77.231,-535.491 77.231,-499.491 178.268,-499.491 178.268,-535.491"/>
<text text-anchor="middle" x="127.75" y="-513.291" font-family="Times,serif" font-size="14.00">(&#39;add&#45;#2&#39;, 0, 2)</text>
</g>
<!-- 6368535238537193491&#45;&gt;4821033378382183056 -->
<g id="edge17" class="edge"><title>6368535238537193491&#45;&gt;4821033378382183056</title>
<path fill="none" stroke="black" d="M127.75,-441.074C127.75,-455.607 127.75,-474.163 127.75,-489.232"/>
<polygon fill="black" stroke="black" points="124.25,-489.481 127.75,-499.481 131.25,-489.481 124.25,-489.481"/>
</g>
<!-- 6395125585658137071 -->
<g id="node26" class="node"><title>6395125585658137071</title>
<polygon fill="none" stroke="black" points="335.75,-332.481 205.749,-332.481 205.749,-296.481 335.75,-296.481 335.75,-332.481"/>
<text text-anchor="middle" x="270.75" y="-310.281" font-family="Times,serif" font-size="14.00">(&#39;wrapped&#45;#1&#39;, 0, 2)</text>
</g>
<!-- 6395125585658137071&#45;&gt;6368535238537193491 -->
<g id="edge19" class="edge"><title>6395125585658137071&#45;&gt;6368535238537193491</title>
<path fill="none" stroke="black" d="M246.167,-332.587C221.2,-349.96 182.567,-376.842 156.27,-395.141"/>
<polygon fill="black" stroke="black" points="154.071,-392.407 147.862,-400.992 158.069,-398.153 154.071,-392.407"/>
</g>
<!-- 466339961372067 -->
<g id="node43" class="node"><title>466339961372067</title>
<ellipse fill="none" stroke="black" cx="267.75" cy="-415.986" rx="47.51" ry="47.51"/>
<text text-anchor="middle" x="267.75" y="-411.786" font-family="Times,serif" font-size="14.00">transpose</text>
</g>
<!-- 6395125585658137071&#45;&gt;466339961372067 -->
<g id="edge38" class="edge"><title>6395125585658137071&#45;&gt;466339961372067</title>
<path fill="none" stroke="black" d="M270.227,-332.814C270.008,-340.093 269.739,-349.011 269.46,-358.257"/>
<polygon fill="black" stroke="black" points="265.959,-358.256 269.156,-368.357 272.955,-358.467 265.959,-358.256"/>
</g>
<!-- &#45;1863238797985659583&#45;&gt;2873975565414019986 -->
<g id="edge20" class="edge"><title>&#45;1863238797985659583&#45;&gt;2873975565414019986</title>
<path fill="none" stroke="black" d="M657.96,-260.524C658.752,-269.287 659.557,-278.184 660.275,-286.119"/>
<polygon fill="black" stroke="black" points="656.804,-286.599 661.191,-296.243 663.775,-285.968 656.804,-286.599"/>
</g>
<!-- &#45;6797300122146208936 -->
<g id="node28" class="node"><title>&#45;6797300122146208936</title>
<ellipse fill="none" stroke="black" cx="64.7497" cy="-28.7358" rx="28.9735" ry="28.9735"/>
<text text-anchor="middle" x="64.7497" y="-24.5358" font-family="Times,serif" font-size="14.00">ones</text>
</g>
<!-- &#45;6797300122146208936&#45;&gt;6395123063266469523 -->
<g id="edge22" class="edge"><title>&#45;6797300122146208936&#45;&gt;6395123063266469523</title>
<path fill="none" stroke="black" d="M64.7497,-57.5204C64.7497,-65.7664 64.7497,-74.7908 64.7497,-83.0158"/>
<polygon fill="black" stroke="black" points="61.2498,-83.2352 64.7497,-93.2352 68.2498,-83.2353 61.2498,-83.2352"/>
</g>
<!-- 4821032117188679380 -->
<g id="node29" class="node"><title>4821032117188679380</title>
<polygon fill="none" stroke="black" points="1531.27,-535.491 1430.23,-535.491 1430.23,-499.491 1531.27,-499.491 1531.27,-535.491"/>
<text text-anchor="middle" x="1480.75" y="-513.291" font-family="Times,serif" font-size="14.00">(&#39;add&#45;#2&#39;, 1, 1)</text>
</g>
<!-- &#45;1408041137538455377&#45;&gt;4821032117188679380 -->
<g id="edge23" class="edge"><title>&#45;1408041137538455377&#45;&gt;4821032117188679380</title>
<path fill="none" stroke="black" d="M1480.75,-441.074C1480.75,-455.607 1480.75,-474.163 1480.75,-489.232"/>
<polygon fill="black" stroke="black" points="1477.25,-489.481 1480.75,-499.481 1484.25,-489.481 1477.25,-489.481"/>
</g>
<!-- 2873971781821858468 -->
<g id="node31" class="node"><title>2873971781821858468</title>
<polygon fill="none" stroke="black" points="1628.92,-332.481 1494.58,-332.481 1494.58,-296.481 1628.92,-296.481 1628.92,-332.481"/>
<text text-anchor="middle" x="1561.75" y="-310.281" font-family="Times,serif" font-size="14.00">(&#39;transpose&#45;#0&#39;, 1, 1)</text>
</g>
<!-- 2873971781821858468&#45;&gt;&#45;1408041137538455377 -->
<g id="edge24" class="edge"><title>2873971781821858468&#45;&gt;&#45;1408041137538455377</title>
<path fill="none" stroke="black" d="M1547.64,-332.814C1535.25,-348.031 1517.03,-370.414 1502.74,-387.978"/>
<polygon fill="black" stroke="black" points="1499.67,-386.196 1496.07,-396.161 1505.1,-390.615 1499.67,-386.196"/>
</g>
<!-- 4821035900777345751 -->
<g id="node32" class="node"><title>4821035900777345751</title>
<polygon fill="none" stroke="black" points="1257.27,-535.491 1156.23,-535.491 1156.23,-499.491 1257.27,-499.491 1257.27,-535.491"/>
<text text-anchor="middle" x="1206.75" y="-513.291" font-family="Times,serif" font-size="14.00">(&#39;add&#45;#2&#39;, 2, 1)</text>
</g>
<!-- 7655424402494836596&#45;&gt;4821035900777345751 -->
<g id="edge26" class="edge"><title>7655424402494836596&#45;&gt;4821035900777345751</title>
<path fill="none" stroke="black" d="M1206.75,-441.074C1206.75,-455.607 1206.75,-474.163 1206.75,-489.232"/>
<polygon fill="black" stroke="black" points="1203.25,-489.481 1206.75,-499.481 1210.25,-489.481 1203.25,-489.481"/>
</g>
<!-- 2873975565410524839 -->
<g id="node34" class="node"><title>2873975565410524839</title>
<polygon fill="none" stroke="black" points="1270.92,-332.481 1136.58,-332.481 1136.58,-296.481 1270.92,-296.481 1270.92,-332.481"/>
<text text-anchor="middle" x="1203.75" y="-310.281" font-family="Times,serif" font-size="14.00">(&#39;transpose&#45;#0&#39;, 2, 1)</text>
</g>
<!-- 2873975565410524839&#45;&gt;7655424402494836596 -->
<g id="edge28" class="edge"><title>2873975565410524839&#45;&gt;7655424402494836596</title>
<path fill="none" stroke="black" d="M1204.27,-332.814C1204.67,-345.969 1205.23,-364.479 1205.71,-380.602"/>
<polygon fill="black" stroke="black" points="1202.22,-380.882 1206.02,-390.772 1209.22,-380.671 1202.22,-380.882"/>
</g>
<!-- &#45;9054879079915821006&#45;&gt;2873973043016527193 -->
<g id="edge29" class="edge"><title>&#45;9054879079915821006&#45;&gt;2873973043016527193</title>
<path fill="none" stroke="black" d="M1005.81,-463.534C1005.64,-472.297 1005.46,-481.194 1005.3,-489.129"/>
<polygon fill="black" stroke="black" points="1001.8,-489.185 1005.1,-499.253 1008.8,-489.326 1001.8,-489.185"/>
</g>
<!-- 8710615357303243081 -->
<g id="node36" class="node"><title>8710615357303243081</title>
<ellipse fill="none" stroke="black" cx="800.75" cy="-28.7358" rx="28.9735" ry="28.9735"/>
<text text-anchor="middle" x="800.75" y="-24.5358" font-family="Times,serif" font-size="14.00">ones</text>
</g>
<!-- 8710615357303243081&#45;&gt;6395125585661632218 -->
<g id="edge31" class="edge"><title>8710615357303243081&#45;&gt;6395125585661632218</title>
<path fill="none" stroke="black" d="M800.75,-57.5204C800.75,-65.7664 800.75,-74.7908 800.75,-83.0158"/>
<polygon fill="black" stroke="black" points="797.25,-83.2352 800.75,-93.2352 804.25,-83.2353 797.25,-83.2352"/>
</g>
<!-- 4821032117187514331 -->
<g id="node37" class="node"><title>4821032117187514331</title>
<polygon fill="none" stroke="black" points="917.268,-535.491 816.231,-535.491 816.231,-499.491 917.268,-499.491 917.268,-535.491"/>
<text text-anchor="middle" x="866.75" y="-513.291" font-family="Times,serif" font-size="14.00">(&#39;add&#45;#2&#39;, 1, 0)</text>
</g>
<!-- 7828821775840183264&#45;&gt;4821032117187514331 -->
<g id="edge32" class="edge"><title>7828821775840183264&#45;&gt;4821032117187514331</title>
<path fill="none" stroke="black" d="M866.75,-441.074C866.75,-455.607 866.75,-474.163 866.75,-489.232"/>
<polygon fill="black" stroke="black" points="863.25,-489.481 866.75,-499.481 870.25,-489.481 863.25,-489.481"/>
</g>
<!-- 2873971781820693419 -->
<g id="node39" class="node"><title>2873971781820693419</title>
<polygon fill="none" stroke="black" points="926.922,-332.481 792.577,-332.481 792.577,-296.481 926.922,-296.481 926.922,-332.481"/>
<text text-anchor="middle" x="859.75" y="-310.281" font-family="Times,serif" font-size="14.00">(&#39;transpose&#45;#0&#39;, 1, 0)</text>
</g>
<!-- 2873971781820693419&#45;&gt;7828821775840183264 -->
<g id="edge34" class="edge"><title>2873971781820693419&#45;&gt;7828821775840183264</title>
<path fill="none" stroke="black" d="M860.969,-332.814C861.894,-345.969 863.197,-364.479 864.331,-380.602"/>
<polygon fill="black" stroke="black" points="860.853,-381.042 865.046,-390.772 867.836,-380.551 860.853,-381.042"/>
</g>
<!-- 2873971781823023517 -->
<g id="node40" class="node"><title>2873971781823023517</title>
<polygon fill="none" stroke="black" points="1411.92,-535.491 1277.58,-535.491 1277.58,-499.491 1411.92,-499.491 1411.92,-535.491"/>
<text text-anchor="middle" x="1344.75" y="-513.291" font-family="Times,serif" font-size="14.00">(&#39;transpose&#45;#0&#39;, 1, 2)</text>
</g>
<!-- 6438497965772012798 -->
<g id="node54" class="node"><title>6438497965772012798</title>
<ellipse fill="none" stroke="black" cx="1116.75" cy="-596.472" rx="24.9604" ry="24.9604"/>
<text text-anchor="middle" x="1116.75" y="-592.272" font-family="Times,serif" font-size="14.00">add</text>
</g>
<!-- 2873971781823023517&#45;&gt;6438497965772012798 -->
<g id="edge54" class="edge"><title>2873971781823023517&#45;&gt;6438497965772012798</title>
<path fill="none" stroke="black" d="M1294.15,-535.576C1250.19,-550.417 1187.79,-571.485 1149.92,-584.273"/>
<polygon fill="black" stroke="black" points="1148.74,-580.978 1140.38,-587.493 1150.98,-587.61 1148.74,-580.978"/>
</g>
<!-- &#45;4810480459328533170&#45;&gt;2873971781823023517 -->
<g id="edge35" class="edge"><title>&#45;4810480459328533170&#45;&gt;2873971781823023517</title>
<path fill="none" stroke="black" d="M1348.48,-463.534C1347.86,-472.297 1347.23,-481.194 1346.67,-489.129"/>
<polygon fill="black" stroke="black" points="1343.17,-489.032 1345.96,-499.253 1350.16,-489.523 1343.17,-489.032"/>
</g>
<!-- 2873975565411689888 -->
<g id="node42" class="node"><title>2873975565411689888</title>
<polygon fill="none" stroke="black" points="332.922,-535.491 198.577,-535.491 198.577,-499.491 332.922,-499.491 332.922,-535.491"/>
<text text-anchor="middle" x="265.75" y="-513.291" font-family="Times,serif" font-size="14.00">(&#39;transpose&#45;#0&#39;, 2, 0)</text>
</g>
<!-- 2873975565411689888&#45;&gt;&#45;2813651404324755245 -->
<g id="edge40" class="edge"><title>2873975565411689888&#45;&gt;&#45;2813651404324755245</title>
<path fill="none" stroke="black" d="M239.118,-535.576C220.077,-547.791 194.461,-564.223 174.877,-576.786"/>
<polygon fill="black" stroke="black" points="172.876,-573.912 166.349,-582.257 176.655,-579.804 172.876,-573.912"/>
</g>
<!-- 466339961372067&#45;&gt;2873975565411689888 -->
<g id="edge37" class="edge"><title>466339961372067&#45;&gt;2873975565411689888</title>
<path fill="none" stroke="black" d="M266.814,-463.534C266.638,-472.297 266.459,-481.194 266.3,-489.129"/>
<polygon fill="black" stroke="black" points="262.798,-489.185 266.096,-499.253 269.797,-489.326 262.798,-489.185"/>
</g>
<!-- 4821035900778510800 -->
<g id="node44" class="node"><title>4821035900778510800</title>
<polygon fill="none" stroke="black" points="196.268,-693.452 95.231,-693.452 95.231,-657.452 196.268,-657.452 196.268,-693.452"/>
<text text-anchor="middle" x="145.75" y="-671.252" font-family="Times,serif" font-size="14.00">(&#39;add&#45;#2&#39;, 2, 0)</text>
</g>
<!-- &#45;2813651404324755245&#45;&gt;4821035900778510800 -->
<g id="edge39" class="edge"><title>&#45;2813651404324755245&#45;&gt;4821035900778510800</title>
<path fill="none" stroke="black" d="M145.75,-621.829C145.75,-629.792 145.75,-638.692 145.75,-646.875"/>
<polygon fill="black" stroke="black" points="142.25,-647.08 145.75,-657.08 149.25,-647.08 142.25,-647.08"/>
</g>
<!-- 6793650305173436671&#45;&gt;2873971781821858468 -->
<g id="edge42" class="edge"><title>6793650305173436671&#45;&gt;2873971781821858468</title>
<path fill="none" stroke="black" d="M1556.43,-260.524C1557.31,-269.287 1558.2,-278.184 1559,-286.119"/>
<polygon fill="black" stroke="black" points="1555.53,-286.643 1560.02,-296.243 1562.5,-285.943 1555.53,-286.643"/>
</g>
<!-- &#45;2297410569630976572 -->
<g id="node47" class="node"><title>&#45;2297410569630976572</title>
<ellipse fill="none" stroke="black" cx="1194.75" cy="-212.977" rx="47.51" ry="47.51"/>
<text text-anchor="middle" x="1194.75" y="-208.777" font-family="Times,serif" font-size="14.00">transpose</text>
</g>
<!-- &#45;2297410569630976572&#45;&gt;2873975565410524839 -->
<g id="edge44" class="edge"><title>&#45;2297410569630976572&#45;&gt;2873975565410524839</title>
<path fill="none" stroke="black" d="M1198.96,-260.524C1199.75,-269.287 1200.56,-278.184 1201.27,-286.119"/>
<polygon fill="black" stroke="black" points="1197.8,-286.599 1202.19,-296.243 1204.78,-285.968 1197.8,-286.599"/>
</g>
<!-- 6395126846859796090 -->
<g id="node48" class="node"><title>6395126846859796090</title>
<polygon fill="none" stroke="black" points="1212.75,-129.472 1082.75,-129.472 1082.75,-93.4715 1212.75,-93.4715 1212.75,-129.472"/>
<text text-anchor="middle" x="1147.75" y="-107.272" font-family="Times,serif" font-size="14.00">(&#39;wrapped&#45;#1&#39;, 1, 2)</text>
</g>
<!-- 6395126846859796090&#45;&gt;&#45;2297410569630976572 -->
<g id="edge45" class="edge"><title>6395126846859796090&#45;&gt;&#45;2297410569630976572</title>
<path fill="none" stroke="black" d="M1155.94,-129.804C1160,-138.417 1165.16,-149.326 1170.37,-160.358"/>
<polygon fill="black" stroke="black" points="1167.3,-162.059 1174.74,-169.606 1173.63,-159.069 1167.3,-162.059"/>
</g>
<!-- 6395126846859796090&#45;&gt;6438497965772012798 -->
<g id="edge53" class="edge"><title>6395126846859796090&#45;&gt;6438497965772012798</title>
<path fill="none" stroke="black" d="M1142.08,-129.729C1131.26,-164.229 1108.75,-244.34 1108.75,-313.481 1108.75,-313.481 1108.75,-313.481 1108.75,-416.986 1108.75,-467.163 1111.94,-525.195 1114.3,-561.119"/>
<polygon fill="black" stroke="black" points="1110.83,-561.782 1114.99,-571.525 1117.82,-561.313 1110.83,-561.782"/>
</g>
<!-- &#45;1318065041226737104&#45;&gt;2873971781820693419 -->
<g id="edge46" class="edge"><title>&#45;1318065041226737104&#45;&gt;2873971781820693419</title>
<path fill="none" stroke="black" d="M854.96,-260.524C855.752,-269.287 856.557,-278.184 857.275,-286.119"/>
<polygon fill="black" stroke="black" points="853.804,-286.599 858.191,-296.243 860.775,-285.968 853.804,-286.599"/>
</g>
<!-- 8330560641609005185&#45;&gt;2873973043017692242 -->
<g id="edge48" class="edge"><title>8330560641609005185&#45;&gt;2873973043017692242</title>
<path fill="none" stroke="black" d="M453.96,-260.524C454.752,-269.287 455.557,-278.184 456.275,-286.119"/>
<polygon fill="black" stroke="black" points="452.804,-286.599 457.191,-296.243 459.775,-285.968 452.804,-286.599"/>
</g>
<!-- &#45;5140238604736552244 -->
<g id="node51" class="node"><title>&#45;5140238604736552244</title>
<ellipse fill="none" stroke="black" cx="270.75" cy="-212.977" rx="28.9735" ry="28.9735"/>
<text text-anchor="middle" x="270.75" y="-208.777" font-family="Times,serif" font-size="14.00">ones</text>
</g>
<!-- &#45;5140238604736552244&#45;&gt;6395125585658137071 -->
<g id="edge50" class="edge"><title>&#45;5140238604736552244&#45;&gt;6395125585658137071</title>
<path fill="none" stroke="black" d="M270.75,-241.959C270.75,-255.748 270.75,-272.315 270.75,-286.031"/>
<polygon fill="black" stroke="black" points="267.25,-286.312 270.75,-296.312 274.25,-286.312 267.25,-286.312"/>
</g>
<!-- &#45;4103659729150155415 -->
<g id="node52" class="node"><title>&#45;4103659729150155415</title>
<ellipse fill="none" stroke="black" cx="1147.75" cy="-28.7358" rx="28.9735" ry="28.9735"/>
<text text-anchor="middle" x="1147.75" y="-24.5358" font-family="Times,serif" font-size="14.00">ones</text>
</g>
<!-- &#45;4103659729150155415&#45;&gt;6395126846859796090 -->
<g id="edge51" class="edge"><title>&#45;4103659729150155415&#45;&gt;6395126846859796090</title>
<path fill="none" stroke="black" d="M1147.75,-57.5204C1147.75,-65.7664 1147.75,-74.7908 1147.75,-83.0158"/>
<polygon fill="black" stroke="black" points="1144.25,-83.2352 1147.75,-93.2352 1151.25,-83.2353 1144.25,-83.2352"/>
</g>
<!-- 4821032117189844429 -->
<g id="node53" class="node"><title>4821032117189844429</title>
<polygon fill="none" stroke="black" points="1167.27,-693.452 1066.23,-693.452 1066.23,-657.452 1167.27,-657.452 1167.27,-693.452"/>
<text text-anchor="middle" x="1116.75" y="-671.252" font-family="Times,serif" font-size="14.00">(&#39;add&#45;#2&#39;, 1, 2)</text>
</g>
<!-- 6438497965772012798&#45;&gt;4821032117189844429 -->
<g id="edge52" class="edge"><title>6438497965772012798&#45;&gt;4821032117189844429</title>
<path fill="none" stroke="black" d="M1116.75,-621.829C1116.75,-629.792 1116.75,-638.692 1116.75,-646.875"/>
<polygon fill="black" stroke="black" points="1113.25,-647.08 1116.75,-657.08 1120.25,-647.08 1113.25,-647.08"/>
</g>
</g>
</svg>
