<?xml version="1.0" encoding="UTF-8" standalone="no"?>
<!DOCTYPE svg PUBLIC "-//W3C//DTD SVG 1.1//EN"
 "http://www.w3.org/Graphics/SVG/1.1/DTD/svg11.dtd">
<!-- Generated by graphviz version 2.38.0 (20140413.2041)
 -->
<!-- Title: %3 Pages: 1 -->
<svg width="1270pt" height="237pt"
 viewBox="0.00 0.00 1270.05 237.33" xmlns="http://www.w3.org/2000/svg" xmlns:xlink="http://www.w3.org/1999/xlink">
<g id="graph0" class="graph" transform="scale(1 1) rotate(0) translate(4 233.334)">
<title>%3</title>
<polygon fill="white" stroke="none" points="-4,4 -4,-233.334 1266.05,-233.334 1266.05,4 -4,4"/>
<!-- &#45;3966250738455972511 -->
<g id="node1" class="node"><title>&#45;3966250738455972511</title>
<polygon fill="none" stroke="black" points="110.08,-229.334 -0.026713,-229.334 -0.026713,-193.334 110.08,-193.334 110.08,-229.334"/>
<text text-anchor="middle" x="55.0267" y="-207.134" font-family="Times,serif" font-size="14.00">(&#39;array&#45;#0&#39;, 0, 5)</text>
</g>
<!-- 3461360963602459514 -->
<g id="node2" class="node"><title>3461360963602459514</title>
<ellipse fill="none" stroke="black" cx="80.0267" cy="-114.667" rx="42.8344" ry="42.8344"/>
<text text-anchor="middle" x="80.0267" y="-110.467" font-family="Times,serif" font-size="14.00">getarray</text>
</g>
<!-- 3461360963602459514&#45;&gt;&#45;3966250738455972511 -->
<g id="edge1" class="edge"><title>3461360963602459514&#45;&gt;&#45;3966250738455972511</title>
<path fill="none" stroke="black" d="M69.3519,-156.089C66.9366,-165.235 64.4282,-174.733 62.1983,-183.177"/>
<polygon fill="black" stroke="black" points="58.8106,-182.298 59.6412,-192.86 65.5786,-184.085 58.8106,-182.298"/>
</g>
<!-- 1530260615313756808 -->
<g id="node3" class="node"><title>1530260615313756808</title>
<polygon fill="none" stroke="black" points="677.646,-36 566.407,-36 566.407,-0 677.646,-0 677.646,-36"/>
<text text-anchor="middle" x="622.027" y="-13.8" font-family="Times,serif" font-size="14.00">array&#45;original&#45;#0</text>
</g>
<!-- 1530260615313756808&#45;&gt;3461360963602459514 -->
<g id="edge2" class="edge"><title>1530260615313756808&#45;&gt;3461360963602459514</title>
<path fill="none" stroke="black" d="M566.044,-21.8884C456.896,-28.0596 219.634,-44.2731 143.027,-72 135.906,-74.5773 128.792,-78.1121 122.044,-82.0414"/>
<polygon fill="black" stroke="black" points="119.753,-79.3437 113.102,-87.5911 123.445,-85.2912 119.753,-79.3437"/>
</g>
<!-- &#45;6454347493690790561 -->
<g id="node5" class="node"><title>&#45;6454347493690790561</title>
<ellipse fill="none" stroke="black" cx="195.027" cy="-114.667" rx="42.8344" ry="42.8344"/>
<text text-anchor="middle" x="195.027" y="-110.467" font-family="Times,serif" font-size="14.00">getarray</text>
</g>
<!-- 1530260615313756808&#45;&gt;&#45;6454347493690790561 -->
<g id="edge4" class="edge"><title>1530260615313756808&#45;&gt;&#45;6454347493690790561</title>
<path fill="none" stroke="black" d="M566.2,-21.4004C495.74,-25.7824 371.601,-38.0354 271.027,-72 260.439,-75.5755 249.598,-80.5831 239.543,-85.891"/>
<polygon fill="black" stroke="black" points="237.644,-82.9406 230.558,-90.8175 241.009,-89.0784 237.644,-82.9406"/>
</g>
<!-- &#45;1047329166749718986 -->
<g id="node7" class="node"><title>&#45;1047329166749718986</title>
<ellipse fill="none" stroke="black" cx="323.027" cy="-114.667" rx="42.8344" ry="42.8344"/>
<text text-anchor="middle" x="323.027" y="-110.467" font-family="Times,serif" font-size="14.00">getarray</text>
</g>
<!-- 1530260615313756808&#45;&gt;&#45;1047329166749718986 -->
<g id="edge6" class="edge"><title>1530260615313756808&#45;&gt;&#45;1047329166749718986</title>
<path fill="none" stroke="black" d="M566.258,-27.9591C520.381,-36.3388 454.176,-50.7731 399.027,-72 388.705,-75.9727 378.046,-81.0989 368.093,-86.3888"/>
<polygon fill="black" stroke="black" points="366.274,-83.3941 359.181,-91.2644 369.634,-89.5351 366.274,-83.3941"/>
</g>
<!-- &#45;6802399928176042736 -->
<g id="node9" class="node"><title>&#45;6802399928176042736</title>
<ellipse fill="none" stroke="black" cx="451.027" cy="-114.667" rx="42.8344" ry="42.8344"/>
<text text-anchor="middle" x="451.027" y="-110.467" font-family="Times,serif" font-size="14.00">getarray</text>
</g>
<!-- 1530260615313756808&#45;&gt;&#45;6802399928176042736 -->
<g id="edge8" class="edge"><title>1530260615313756808&#45;&gt;&#45;6802399928176042736</title>
<path fill="none" stroke="black" d="M586.101,-36.0756C565.61,-46.0769 539.592,-59.2205 517.027,-72 509.738,-76.1276 502.122,-80.6911 494.76,-85.2395"/>
<polygon fill="black" stroke="black" points="492.896,-82.2771 486.271,-90.5448 496.606,-88.2132 492.896,-82.2771"/>
</g>
<!-- 7115855805969183564 -->
<g id="node11" class="node"><title>7115855805969183564</title>
<ellipse fill="none" stroke="black" cx="569.027" cy="-114.667" rx="42.8344" ry="42.8344"/>
<text text-anchor="middle" x="569.027" y="-110.467" font-family="Times,serif" font-size="14.00">getarray</text>
</g>
<!-- 1530260615313756808&#45;&gt;7115855805969183564 -->
<g id="edge10" class="edge"><title>1530260615313756808&#45;&gt;7115855805969183564</title>
<path fill="none" stroke="black" d="M612.306,-36.3634C607.259,-45.3767 600.834,-56.8531 594.489,-68.1876"/>
<polygon fill="black" stroke="black" points="591.276,-66.762 589.444,-77.1974 597.384,-70.1816 591.276,-66.762"/>
</g>
<!-- 5624140262112340139 -->
<g id="node13" class="node"><title>5624140262112340139</title>
<ellipse fill="none" stroke="black" cx="676.027" cy="-114.667" rx="42.8344" ry="42.8344"/>
<text text-anchor="middle" x="676.027" y="-110.467" font-family="Times,serif" font-size="14.00">getarray</text>
</g>
<!-- 1530260615313756808&#45;&gt;5624140262112340139 -->
<g id="edge12" class="edge"><title>1530260615313756808&#45;&gt;5624140262112340139</title>
<path fill="none" stroke="black" d="M631.931,-36.3634C637.073,-45.3767 643.619,-56.8531 650.084,-68.1876"/>
<polygon fill="black" stroke="black" points="647.229,-70.2453 655.224,-77.1974 653.309,-66.777 647.229,-70.2453"/>
</g>
<!-- 8003023055451527805 -->
<g id="node15" class="node"><title>8003023055451527805</title>
<ellipse fill="none" stroke="black" cx="787.027" cy="-114.667" rx="42.8344" ry="42.8344"/>
<text text-anchor="middle" x="787.027" y="-110.467" font-family="Times,serif" font-size="14.00">getarray</text>
</g>
<!-- 1530260615313756808&#45;&gt;8003023055451527805 -->
<g id="edge14" class="edge"><title>1530260615313756808&#45;&gt;8003023055451527805</title>
<path fill="none" stroke="black" d="M659.553,-36.0567C680.168,-45.8476 705.958,-58.7933 728.027,-72 733.535,-75.2961 739.199,-78.94 744.736,-82.6607"/>
<polygon fill="black" stroke="black" points="743.068,-85.7605 753.294,-88.532 747.028,-79.9884 743.068,-85.7605"/>
</g>
<!-- 1554005985079942089 -->
<g id="node17" class="node"><title>1554005985079942089</title>
<ellipse fill="none" stroke="black" cx="906.027" cy="-114.667" rx="42.8344" ry="42.8344"/>
<text text-anchor="middle" x="906.027" y="-110.467" font-family="Times,serif" font-size="14.00">getarray</text>
</g>
<!-- 1530260615313756808&#45;&gt;1554005985079942089 -->
<g id="edge16" class="edge"><title>1530260615313756808&#45;&gt;1554005985079942089</title>
<path fill="none" stroke="black" d="M677.964,-27.6275C722.724,-35.7112 786.474,-49.9074 839.027,-72 846.923,-75.3194 854.959,-79.5032 862.596,-83.9311"/>
<polygon fill="black" stroke="black" points="860.973,-87.0397 871.345,-89.204 864.586,-81.0444 860.973,-87.0397"/>
</g>
<!-- 9121542631257648430 -->
<g id="node19" class="node"><title>9121542631257648430</title>
<ellipse fill="none" stroke="black" cx="1040.03" cy="-114.667" rx="42.8344" ry="42.8344"/>
<text text-anchor="middle" x="1040.03" y="-110.467" font-family="Times,serif" font-size="14.00">getarray</text>
</g>
<!-- 1530260615313756808&#45;&gt;9121542631257648430 -->
<g id="edge18" class="edge"><title>1530260615313756808&#45;&gt;9121542631257648430</title>
<path fill="none" stroke="black" d="M677.674,-22.4262C745.346,-27.8014 862.38,-41.0144 958.027,-72 970.253,-75.9609 982.897,-81.5497 994.487,-87.3513"/>
<polygon fill="black" stroke="black" points="993.037,-90.5418 1003.53,-92.0227 996.251,-84.3229 993.037,-90.5418"/>
</g>
<!-- &#45;1090959881703576827 -->
<g id="node21" class="node"><title>&#45;1090959881703576827</title>
<ellipse fill="none" stroke="black" cx="1205.03" cy="-114.667" rx="42.8344" ry="42.8344"/>
<text text-anchor="middle" x="1205.03" y="-110.467" font-family="Times,serif" font-size="14.00">getarray</text>
</g>
<!-- 1530260615313756808&#45;&gt;&#45;1090959881703576827 -->
<g id="edge20" class="edge"><title>1530260615313756808&#45;&gt;&#45;1090959881703576827</title>
<path fill="none" stroke="black" d="M677.76,-20.948C766.528,-25.0148 945.011,-37.1462 1092.03,-72 1113.79,-77.1606 1137.11,-85.2857 1156.87,-92.9958"/>
<polygon fill="black" stroke="black" points="1155.67,-96.2884 1166.26,-96.7327 1158.26,-89.7842 1155.67,-96.2884"/>
</g>
<!-- &#45;3966250738461797756 -->
<g id="node4" class="node"><title>&#45;3966250738461797756</title>
<polygon fill="none" stroke="black" points="238.08,-229.334 127.973,-229.334 127.973,-193.334 238.08,-193.334 238.08,-229.334"/>
<text text-anchor="middle" x="183.027" y="-207.134" font-family="Times,serif" font-size="14.00">(&#39;array&#45;#0&#39;, 0, 2)</text>
</g>
<!-- &#45;6454347493690790561&#45;&gt;&#45;3966250738461797756 -->
<g id="edge3" class="edge"><title>&#45;6454347493690790561&#45;&gt;&#45;3966250738461797756</title>
<path fill="none" stroke="black" d="M189.763,-157.189C188.642,-166.032 187.487,-175.15 186.456,-183.282"/>
<polygon fill="black" stroke="black" points="182.971,-182.939 185.186,-193.3 189.916,-183.819 182.971,-182.939"/>
</g>
<!-- &#45;3966250738451312315 -->
<g id="node6" class="node"><title>&#45;3966250738451312315</title>
<polygon fill="none" stroke="black" points="366.08,-229.334 255.973,-229.334 255.973,-193.334 366.08,-193.334 366.08,-229.334"/>
<text text-anchor="middle" x="311.027" y="-207.134" font-family="Times,serif" font-size="14.00">(&#39;array&#45;#0&#39;, 0, 9)</text>
</g>
<!-- &#45;1047329166749718986&#45;&gt;&#45;3966250738451312315 -->
<g id="edge5" class="edge"><title>&#45;1047329166749718986&#45;&gt;&#45;3966250738451312315</title>
<path fill="none" stroke="black" d="M317.763,-157.189C316.642,-166.032 315.487,-175.15 314.456,-183.282"/>
<polygon fill="black" stroke="black" points="310.971,-182.939 313.186,-193.3 317.916,-183.819 310.971,-182.939"/>
</g>
<!-- &#45;3966250738462962805 -->
<g id="node8" class="node"><title>&#45;3966250738462962805</title>
<polygon fill="none" stroke="black" points="494.08,-229.334 383.973,-229.334 383.973,-193.334 494.08,-193.334 494.08,-229.334"/>
<text text-anchor="middle" x="439.027" y="-207.134" font-family="Times,serif" font-size="14.00">(&#39;array&#45;#0&#39;, 0, 3)</text>
</g>
<!-- &#45;6802399928176042736&#45;&gt;&#45;3966250738462962805 -->
<g id="edge7" class="edge"><title>&#45;6802399928176042736&#45;&gt;&#45;3966250738462962805</title>
<path fill="none" stroke="black" d="M445.763,-157.189C444.642,-166.032 443.487,-175.15 442.456,-183.282"/>
<polygon fill="black" stroke="black" points="438.971,-182.939 441.186,-193.3 445.916,-183.819 438.971,-182.939"/>
</g>
<!-- &#45;3966250738458302609 -->
<g id="node10" class="node"><title>&#45;3966250738458302609</title>
<polygon fill="none" stroke="black" points="622.08,-229.334 511.973,-229.334 511.973,-193.334 622.08,-193.334 622.08,-229.334"/>
<text text-anchor="middle" x="567.027" y="-207.134" font-family="Times,serif" font-size="14.00">(&#39;array&#45;#0&#39;, 0, 7)</text>
</g>
<!-- 7115855805969183564&#45;&gt;&#45;3966250738458302609 -->
<g id="edge9" class="edge"><title>7115855805969183564&#45;&gt;&#45;3966250738458302609</title>
<path fill="none" stroke="black" d="M568.144,-157.465C567.962,-166.046 567.776,-174.873 567.608,-182.798"/>
<polygon fill="black" stroke="black" points="564.106,-182.864 567.394,-192.936 571.105,-183.012 564.106,-182.864"/>
</g>
<!-- &#45;3966250738457137560 -->
<g id="node12" class="node"><title>&#45;3966250738457137560</title>
<polygon fill="none" stroke="black" points="750.08,-229.334 639.973,-229.334 639.973,-193.334 750.08,-193.334 750.08,-229.334"/>
<text text-anchor="middle" x="695.027" y="-207.134" font-family="Times,serif" font-size="14.00">(&#39;array&#45;#0&#39;, 0, 6)</text>
</g>
<!-- 5624140262112340139&#45;&gt;&#45;3966250738457137560 -->
<g id="edge11" class="edge"><title>5624140262112340139&#45;&gt;&#45;3966250738457137560</title>
<path fill="none" stroke="black" d="M684.25,-156.639C686.055,-165.633 687.923,-174.94 689.586,-183.228"/>
<polygon fill="black" stroke="black" points="686.164,-183.965 691.564,-193.08 693.028,-182.587 686.164,-183.965"/>
</g>
<!-- &#45;3966250738459467658 -->
<g id="node14" class="node"><title>&#45;3966250738459467658</title>
<polygon fill="none" stroke="black" points="878.08,-229.334 767.973,-229.334 767.973,-193.334 878.08,-193.334 878.08,-229.334"/>
<text text-anchor="middle" x="823.027" y="-207.134" font-family="Times,serif" font-size="14.00">(&#39;array&#45;#0&#39;, 0, 0)</text>
</g>
<!-- 8003023055451527805&#45;&gt;&#45;3966250738459467658 -->
<g id="edge13" class="edge"><title>8003023055451527805&#45;&gt;&#45;3966250738459467658</title>
<path fill="none" stroke="black" d="M801.877,-154.718C805.592,-164.487 809.492,-174.743 812.917,-183.748"/>
<polygon fill="black" stroke="black" points="809.72,-185.19 816.546,-193.293 816.263,-182.702 809.72,-185.19"/>
</g>
<!-- &#45;3966250738454807462 -->
<g id="node16" class="node"><title>&#45;3966250738454807462</title>
<polygon fill="none" stroke="black" points="1006.08,-229.334 895.973,-229.334 895.973,-193.334 1006.08,-193.334 1006.08,-229.334"/>
<text text-anchor="middle" x="951.027" y="-207.134" font-family="Times,serif" font-size="14.00">(&#39;array&#45;#0&#39;, 0, 4)</text>
</g>
<!-- 1554005985079942089&#45;&gt;&#45;3966250738454807462 -->
<g id="edge15" class="edge"><title>1554005985079942089&#45;&gt;&#45;3966250738454807462</title>
<path fill="none" stroke="black" d="M924.071,-153.626C928.862,-163.705 933.934,-174.375 938.37,-183.707"/>
<polygon fill="black" stroke="black" points="935.27,-185.338 942.724,-192.867 941.592,-182.333 935.27,-185.338"/>
</g>
<!-- &#45;3966250738460632707 -->
<g id="node18" class="node"><title>&#45;3966250738460632707</title>
<polygon fill="none" stroke="black" points="1134.08,-229.334 1023.97,-229.334 1023.97,-193.334 1134.08,-193.334 1134.08,-229.334"/>
<text text-anchor="middle" x="1079.03" y="-207.134" font-family="Times,serif" font-size="14.00">(&#39;array&#45;#0&#39;, 0, 1)</text>
</g>
<!-- 9121542631257648430&#45;&gt;&#45;3966250738460632707 -->
<g id="edge17" class="edge"><title>9121542631257648430&#45;&gt;&#45;3966250738460632707</title>
<path fill="none" stroke="black" d="M1056,-154.445C1060.08,-164.344 1064.37,-174.76 1068.13,-183.882"/>
<polygon fill="black" stroke="black" points="1064.92,-185.274 1071.96,-193.187 1071.39,-182.608 1064.92,-185.274"/>
</g>
<!-- &#45;3966250738450147266 -->
<g id="node20" class="node"><title>&#45;3966250738450147266</title>
<polygon fill="none" stroke="black" points="1262.08,-229.334 1151.97,-229.334 1151.97,-193.334 1262.08,-193.334 1262.08,-229.334"/>
<text text-anchor="middle" x="1207.03" y="-207.134" font-family="Times,serif" font-size="14.00">(&#39;array&#45;#0&#39;, 0, 8)</text>
</g>
<!-- &#45;1090959881703576827&#45;&gt;&#45;3966250738450147266 -->
<g id="edge19" class="edge"><title>&#45;1090959881703576827&#45;&gt;&#45;3966250738450147266</title>
<path fill="none" stroke="black" d="M1205.91,-157.465C1206.09,-166.046 1206.28,-174.873 1206.44,-182.798"/>
<polygon fill="black" stroke="black" points="1202.95,-183.012 1206.66,-192.936 1209.95,-182.864 1202.95,-183.012"/>
</g>
</g>
</svg>
