<?xml version="1.0" encoding="UTF-8" standalone="no"?>
<!DOCTYPE svg PUBLIC "-//W3C//DTD SVG 1.1//EN"
 "http://www.w3.org/Graphics/SVG/1.1/DTD/svg11.dtd">
<!-- Generated by graphviz version 2.38.0 (20140413.2041)
 -->
<!-- Title: %3 Pages: 1 -->
<svg width="1313pt" height="137pt"
 viewBox="0.00 0.00 1313.50 137.47" xmlns="http://www.w3.org/2000/svg" xmlns:xlink="http://www.w3.org/1999/xlink">
<g id="graph0" class="graph" transform="scale(1 1) rotate(0) translate(4 133.472)">
<title>%3</title>
<polygon fill="white" stroke="none" points="-4,4 -4,-133.472 1309.5,-133.472 1309.5,4 -4,4"/>
<!-- 6395125585660467169 -->
<g id="node1" class="node"><title>6395125585660467169</title>
<polygon fill="none" stroke="black" points="129.75,-129.472 -0.250667,-129.472 -0.250667,-93.4715 129.75,-93.4715 129.75,-129.472"/>
<text text-anchor="middle" x="64.7497" y="-107.272" font-family="Times,serif" font-size="14.00">(&#39;wrapped&#45;#0&#39;, 0, 0)</text>
</g>
<!-- &#45;8626740574921666310 -->
<g id="node2" class="node"><title>&#45;8626740574921666310</title>
<ellipse fill="none" stroke="black" cx="64.7497" cy="-28.7358" rx="28.9735" ry="28.9735"/>
<text text-anchor="middle" x="64.7497" y="-24.5358" font-family="Times,serif" font-size="14.00">ones</text>
</g>
<!-- &#45;8626740574921666310&#45;&gt;6395125585660467169 -->
<g id="edge1" class="edge"><title>&#45;8626740574921666310&#45;&gt;6395125585660467169</title>
<path fill="none" stroke="black" d="M64.7497,-57.5204C64.7497,-65.7664 64.7497,-74.7908 64.7497,-83.0158"/>
<polygon fill="black" stroke="black" points="61.2498,-83.2352 64.7497,-93.2352 68.2498,-83.2353 61.2498,-83.2352"/>
</g>
<!-- 6395123063268799621 -->
<g id="node3" class="node"><title>6395123063268799621</title>
<polygon fill="none" stroke="black" points="276.75,-129.472 146.749,-129.472 146.749,-93.4715 276.75,-93.4715 276.75,-129.472"/>
<text text-anchor="middle" x="211.75" y="-107.272" font-family="Times,serif" font-size="14.00">(&#39;wrapped&#45;#0&#39;, 2, 2)</text>
</g>
<!-- 8489942519548496630 -->
<g id="node4" class="node"><title>8489942519548496630</title>
<ellipse fill="none" stroke="black" cx="211.75" cy="-28.7358" rx="28.9735" ry="28.9735"/>
<text text-anchor="middle" x="211.75" y="-24.5358" font-family="Times,serif" font-size="14.00">ones</text>
</g>
<!-- 8489942519548496630&#45;&gt;6395123063268799621 -->
<g id="edge2" class="edge"><title>8489942519548496630&#45;&gt;6395123063268799621</title>
<path fill="none" stroke="black" d="M211.75,-57.5204C211.75,-65.7664 211.75,-74.7908 211.75,-83.0158"/>
<polygon fill="black" stroke="black" points="208.25,-83.2352 211.75,-93.2352 215.25,-83.2353 208.25,-83.2352"/>
</g>
<!-- 6395126846857465992 -->
<g id="node5" class="node"><title>6395126846857465992</title>
<polygon fill="none" stroke="black" points="423.75,-129.472 293.749,-129.472 293.749,-93.4715 423.75,-93.4715 423.75,-129.472"/>
<text text-anchor="middle" x="358.75" y="-107.272" font-family="Times,serif" font-size="14.00">(&#39;wrapped&#45;#0&#39;, 1, 0)</text>
</g>
<!-- &#45;1578829920378787765 -->
<g id="node6" class="node"><title>&#45;1578829920378787765</title>
<ellipse fill="none" stroke="black" cx="358.75" cy="-28.7358" rx="28.9735" ry="28.9735"/>
<text text-anchor="middle" x="358.75" y="-24.5358" font-family="Times,serif" font-size="14.00">ones</text>
</g>
<!-- &#45;1578829920378787765&#45;&gt;6395126846857465992 -->
<g id="edge3" class="edge"><title>&#45;1578829920378787765&#45;&gt;6395126846857465992</title>
<path fill="none" stroke="black" d="M358.75,-57.5204C358.75,-65.7664 358.75,-74.7908 358.75,-83.0158"/>
<polygon fill="black" stroke="black" points="355.25,-83.2352 358.75,-93.2352 362.25,-83.2353 355.25,-83.2352"/>
</g>
<!-- 6395123063267634572 -->
<g id="node7" class="node"><title>6395123063267634572</title>
<polygon fill="none" stroke="black" points="570.75,-129.472 440.749,-129.472 440.749,-93.4715 570.75,-93.4715 570.75,-129.472"/>
<text text-anchor="middle" x="505.75" y="-107.272" font-family="Times,serif" font-size="14.00">(&#39;wrapped&#45;#0&#39;, 2, 1)</text>
</g>
<!-- &#45;8457059789788751961 -->
<g id="node8" class="node"><title>&#45;8457059789788751961</title>
<ellipse fill="none" stroke="black" cx="505.75" cy="-28.7358" rx="28.9735" ry="28.9735"/>
<text text-anchor="middle" x="505.75" y="-24.5358" font-family="Times,serif" font-size="14.00">ones</text>
</g>
<!-- &#45;8457059789788751961&#45;&gt;6395123063267634572 -->
<g id="edge4" class="edge"><title>&#45;8457059789788751961&#45;&gt;6395123063267634572</title>
<path fill="none" stroke="black" d="M505.75,-57.5204C505.75,-65.7664 505.75,-74.7908 505.75,-83.0158"/>
<polygon fill="black" stroke="black" points="502.25,-83.2352 505.75,-93.2352 509.25,-83.2353 502.25,-83.2352"/>
</g>
<!-- 6395126846856300943 -->
<g id="node9" class="node"><title>6395126846856300943</title>
<polygon fill="none" stroke="black" points="717.75,-129.472 587.749,-129.472 587.749,-93.4715 717.75,-93.4715 717.75,-129.472"/>
<text text-anchor="middle" x="652.75" y="-107.272" font-family="Times,serif" font-size="14.00">(&#39;wrapped&#45;#0&#39;, 1, 1)</text>
</g>
<!-- 2365756063449588076 -->
<g id="node10" class="node"><title>2365756063449588076</title>
<ellipse fill="none" stroke="black" cx="652.75" cy="-28.7358" rx="28.9735" ry="28.9735"/>
<text text-anchor="middle" x="652.75" y="-24.5358" font-family="Times,serif" font-size="14.00">ones</text>
</g>
<!-- 2365756063449588076&#45;&gt;6395126846856300943 -->
<g id="edge5" class="edge"><title>2365756063449588076&#45;&gt;6395126846856300943</title>
<path fill="none" stroke="black" d="M652.75,-57.5204C652.75,-65.7664 652.75,-74.7908 652.75,-83.0158"/>
<polygon fill="black" stroke="black" points="649.25,-83.2352 652.75,-93.2352 656.25,-83.2353 649.25,-83.2352"/>
</g>
<!-- 6395123063266469523 -->
<g id="node11" class="node"><title>6395123063266469523</title>
<polygon fill="none" stroke="black" points="864.75,-129.472 734.749,-129.472 734.749,-93.4715 864.75,-93.4715 864.75,-129.472"/>
<text text-anchor="middle" x="799.75" y="-107.272" font-family="Times,serif" font-size="14.00">(&#39;wrapped&#45;#0&#39;, 2, 0)</text>
</g>
<!-- &#45;6797300122146208936 -->
<g id="node12" class="node"><title>&#45;6797300122146208936</title>
<ellipse fill="none" stroke="black" cx="799.75" cy="-28.7358" rx="28.9735" ry="28.9735"/>
<text text-anchor="middle" x="799.75" y="-24.5358" font-family="Times,serif" font-size="14.00">ones</text>
</g>
<!-- &#45;6797300122146208936&#45;&gt;6395123063266469523 -->
<g id="edge6" class="edge"><title>&#45;6797300122146208936&#45;&gt;6395123063266469523</title>
<path fill="none" stroke="black" d="M799.75,-57.5204C799.75,-65.7664 799.75,-74.7908 799.75,-83.0158"/>
<polygon fill="black" stroke="black" points="796.25,-83.2352 799.75,-93.2352 803.25,-83.2353 796.25,-83.2352"/>
</g>
<!-- 6395125585661632218 -->
<g id="node13" class="node"><title>6395125585661632218</title>
<polygon fill="none" stroke="black" points="1011.75,-129.472 881.749,-129.472 881.749,-93.4715 1011.75,-93.4715 1011.75,-129.472"/>
<text text-anchor="middle" x="946.75" y="-107.272" font-family="Times,serif" font-size="14.00">(&#39;wrapped&#45;#0&#39;, 0, 1)</text>
</g>
<!-- 8710615357303243081 -->
<g id="node14" class="node"><title>8710615357303243081</title>
<ellipse fill="none" stroke="black" cx="946.75" cy="-28.7358" rx="28.9735" ry="28.9735"/>
<text text-anchor="middle" x="946.75" y="-24.5358" font-family="Times,serif" font-size="14.00">ones</text>
</g>
<!-- 8710615357303243081&#45;&gt;6395125585661632218 -->
<g id="edge7" class="edge"><title>8710615357303243081&#45;&gt;6395125585661632218</title>
<path fill="none" stroke="black" d="M946.75,-57.5204C946.75,-65.7664 946.75,-74.7908 946.75,-83.0158"/>
<polygon fill="black" stroke="black" points="943.25,-83.2352 946.75,-93.2352 950.25,-83.2353 943.25,-83.2352"/>
</g>
<!-- 6395125585658137071 -->
<g id="node15" class="node"><title>6395125585658137071</title>
<polygon fill="none" stroke="black" points="1158.75,-129.472 1028.75,-129.472 1028.75,-93.4715 1158.75,-93.4715 1158.75,-129.472"/>
<text text-anchor="middle" x="1093.75" y="-107.272" font-family="Times,serif" font-size="14.00">(&#39;wrapped&#45;#0&#39;, 0, 2)</text>
</g>
<!-- &#45;5140238604736552244 -->
<g id="node16" class="node"><title>&#45;5140238604736552244</title>
<ellipse fill="none" stroke="black" cx="1093.75" cy="-28.7358" rx="28.9735" ry="28.9735"/>
<text text-anchor="middle" x="1093.75" y="-24.5358" font-family="Times,serif" font-size="14.00">ones</text>
</g>
<!-- &#45;5140238604736552244&#45;&gt;6395125585658137071 -->
<g id="edge8" class="edge"><title>&#45;5140238604736552244&#45;&gt;6395125585658137071</title>
<path fill="none" stroke="black" d="M1093.75,-57.5204C1093.75,-65.7664 1093.75,-74.7908 1093.75,-83.0158"/>
<polygon fill="black" stroke="black" points="1090.25,-83.2352 1093.75,-93.2352 1097.25,-83.2353 1090.25,-83.2352"/>
</g>
<!-- 6395126846859796090 -->
<g id="node17" class="node"><title>6395126846859796090</title>
<polygon fill="none" stroke="black" points="1305.75,-129.472 1175.75,-129.472 1175.75,-93.4715 1305.75,-93.4715 1305.75,-129.472"/>
<text text-anchor="middle" x="1240.75" y="-107.272" font-family="Times,serif" font-size="14.00">(&#39;wrapped&#45;#0&#39;, 1, 2)</text>
</g>
<!-- &#45;4103659729150155415 -->
<g id="node18" class="node"><title>&#45;4103659729150155415</title>
<ellipse fill="none" stroke="black" cx="1240.75" cy="-28.7358" rx="28.9735" ry="28.9735"/>
<text text-anchor="middle" x="1240.75" y="-24.5358" font-family="Times,serif" font-size="14.00">ones</text>
</g>
<!-- &#45;4103659729150155415&#45;&gt;6395126846859796090 -->
<g id="edge9" class="edge"><title>&#45;4103659729150155415&#45;&gt;6395126846859796090</title>
<path fill="none" stroke="black" d="M1240.75,-57.5204C1240.75,-65.7664 1240.75,-74.7908 1240.75,-83.0158"/>
<polygon fill="black" stroke="black" points="1237.25,-83.2352 1240.75,-93.2352 1244.25,-83.2353 1237.25,-83.2352"/>
</g>
</g>
</svg>
