<?xml version="1.0" encoding="UTF-8" standalone="no"?>
<!DOCTYPE svg PUBLIC "-//W3C//DTD SVG 1.1//EN"
 "http://www.w3.org/Graphics/SVG/1.1/DTD/svg11.dtd">
<!-- Generated by graphviz version 2.38.0 (20140413.2041)
 -->
<!-- Title: %3 Pages: 1 -->
<svg width="302pt" height="1318pt"
 viewBox="0.00 0.00 302.14 1318.38" xmlns="http://www.w3.org/2000/svg" xmlns:xlink="http://www.w3.org/1999/xlink">
<g id="graph0" class="graph" transform="scale(1 1) rotate(0) translate(4 1314.38)">
<title>%3</title>
<polygon fill="white" stroke="none" points="-4,4 -4,-1314.38 298.137,-1314.38 298.137,4 -4,4"/>
<!-- &#45;8977405525559876030 -->
<g id="node1" class="node"><title>&#45;8977405525559876030</title>
<polygon fill="none" stroke="black" points="109.442,-722.799 -0.147698,-722.799 -0.147698,-686.799 109.442,-686.799 109.442,-722.799"/>
<text text-anchor="middle" x="54.6473" y="-700.599" font-family="Times,serif" font-size="14.00">(&#39;getitem&#45;#0&#39;, 0)</text>
</g>
<!-- &#45;842255155252862481 -->
<g id="node17" class="node"><title>&#45;842255155252862481</title>
<ellipse fill="none" stroke="black" cx="61.6473" cy="-791.292" rx="32.4846" ry="32.4846"/>
<text text-anchor="middle" x="61.6473" y="-787.092" font-family="Times,serif" font-size="14.00">apply</text>
</g>
<!-- &#45;8977405525559876030&#45;&gt;&#45;842255155252862481 -->
<g id="edge18" class="edge"><title>&#45;8977405525559876030&#45;&gt;&#45;842255155252862481</title>
<path fill="none" stroke="black" d="M56.0639,-722.898C56.685,-730.395 57.4438,-739.554 58.1994,-748.674"/>
<polygon fill="black" stroke="black" points="54.7298,-749.187 59.0436,-758.864 61.7059,-748.609 54.7298,-749.187"/>
</g>
<!-- &#45;7096048926615382927 -->
<g id="node2" class="node"><title>&#45;7096048926615382927</title>
<ellipse fill="none" stroke="black" cx="69.6473" cy="-610.798" rx="40.0031" ry="40.0031"/>
<text text-anchor="middle" x="69.6473" y="-606.598" font-family="Times,serif" font-size="14.00">getitem</text>
</g>
<!-- &#45;7096048926615382927&#45;&gt;&#45;8977405525559876030 -->
<g id="edge1" class="edge"><title>&#45;7096048926615382927&#45;&gt;&#45;8977405525559876030</title>
<path fill="none" stroke="black" d="M63.3294,-650.548C61.9042,-659.289 60.4206,-668.389 59.0915,-676.541"/>
<polygon fill="black" stroke="black" points="55.6059,-676.169 57.4511,-686.602 62.5147,-677.296 55.6059,-676.169"/>
</g>
<!-- &#45;4151254639528936089 -->
<g id="node3" class="node"><title>&#45;4151254639528936089</title>
<polygon fill="none" stroke="black" points="252.857,-534.796 110.437,-534.796 110.437,-498.796 252.857,-498.796 252.857,-534.796"/>
<text text-anchor="middle" x="181.647" y="-512.596" font-family="Times,serif" font-size="14.00">(&#39;from&#45;delayed&#45;#1&#39;, 0)</text>
</g>
<!-- &#45;4151254639528936089&#45;&gt;&#45;7096048926615382927 -->
<g id="edge2" class="edge"><title>&#45;4151254639528936089&#45;&gt;&#45;7096048926615382927</title>
<path fill="none" stroke="black" d="M160.843,-534.885C146.032,-547.052 125.695,-563.758 107.984,-578.306"/>
<polygon fill="black" stroke="black" points="105.567,-575.762 100.061,-584.815 110.01,-581.172 105.567,-575.762"/>
</g>
<!-- &#45;8294352316287542701 -->
<g id="node14" class="node"><title>&#45;8294352316287542701</title>
<ellipse fill="none" stroke="black" cx="224.647" cy="-1168.89" rx="69.48" ry="69.48"/>
<text text-anchor="middle" x="224.647" y="-1164.69" font-family="Times,serif" font-size="14.00">_getitem_array</text>
</g>
<!-- &#45;4151254639528936089&#45;&gt;&#45;8294352316287542701 -->
<g id="edge13" class="edge"><title>&#45;4151254639528936089&#45;&gt;&#45;8294352316287542701</title>
<path fill="none" stroke="black" d="M201.864,-535.12C211.87,-544.7 223.341,-557.367 230.647,-570.796 259.804,-624.392 264.647,-642.786 264.647,-703.799 264.647,-703.799 264.647,-703.799 264.647,-962.593 264.647,-1005.93 255.955,-1053.47 246.675,-1091.88"/>
<polygon fill="black" stroke="black" points="243.188,-1091.41 244.179,-1101.95 249.982,-1093.09 243.188,-1091.41"/>
</g>
<!-- &#45;5380186653183573247 -->
<g id="node16" class="node"><title>&#45;5380186653183573247</title>
<ellipse fill="none" stroke="black" cx="181.647" cy="-610.798" rx="40.0031" ry="40.0031"/>
<text text-anchor="middle" x="181.647" y="-606.598" font-family="Times,serif" font-size="14.00">getitem</text>
</g>
<!-- &#45;4151254639528936089&#45;&gt;&#45;5380186653183573247 -->
<g id="edge16" class="edge"><title>&#45;4151254639528936089&#45;&gt;&#45;5380186653183573247</title>
<path fill="none" stroke="black" d="M181.647,-535.101C181.647,-542.362 181.647,-551.212 181.647,-560.245"/>
<polygon fill="black" stroke="black" points="178.147,-560.447 181.647,-570.447 185.147,-560.447 178.147,-560.447"/>
</g>
<!-- &#45;9144174901028520789 -->
<g id="node4" class="node"><title>&#45;9144174901028520789</title>
<polygon fill="none" stroke="black" points="242.107,-462.796 121.188,-462.796 121.188,-426.796 242.107,-426.796 242.107,-462.796"/>
<text text-anchor="middle" x="181.647" y="-440.596" font-family="Times,serif" font-size="14.00">bytes_read_csv&#45;#2</text>
</g>
<!-- &#45;9144174901028520789&#45;&gt;&#45;4151254639528936089 -->
<g id="edge3" class="edge"><title>&#45;9144174901028520789&#45;&gt;&#45;4151254639528936089</title>
<path fill="none" stroke="black" d="M181.647,-463.1C181.647,-470.813 181.647,-480.084 181.647,-488.684"/>
<polygon fill="black" stroke="black" points="178.147,-488.692 181.647,-498.692 185.147,-488.692 178.147,-488.692"/>
</g>
<!-- &#45;1097920245253071056 -->
<g id="node5" class="node"><title>&#45;1097920245253071056</title>
<ellipse fill="none" stroke="black" cx="181.647" cy="-344.632" rx="46.3298" ry="46.3298"/>
<text text-anchor="middle" x="181.647" y="-340.432" font-family="Times,serif" font-size="14.00">apply(...)</text>
</g>
<!-- &#45;1097920245253071056&#45;&gt;&#45;9144174901028520789 -->
<g id="edge4" class="edge"><title>&#45;1097920245253071056&#45;&gt;&#45;9144174901028520789</title>
<path fill="none" stroke="black" d="M181.647,-390.978C181.647,-399.682 181.647,-408.543 181.647,-416.458"/>
<polygon fill="black" stroke="black" points="178.147,-416.562 181.647,-426.562 185.147,-416.562 178.147,-416.562"/>
</g>
<!-- &#45;4902172213258483727 -->
<g id="node6" class="node"><title>&#45;4902172213258483727</title>
<polygon fill="none" stroke="black" points="246.642,-262.467 116.653,-262.467 116.653,-226.467 246.642,-226.467 246.642,-262.467"/>
<text text-anchor="middle" x="181.647" y="-240.267" font-family="Times,serif" font-size="14.00">read&#45;file&#45;block&#45;#3&#45;0</text>
</g>
<!-- &#45;4902172213258483727&#45;&gt;&#45;1097920245253071056 -->
<g id="edge5" class="edge"><title>&#45;4902172213258483727&#45;&gt;&#45;1097920245253071056</title>
<path fill="none" stroke="black" d="M181.647,-262.566C181.647,-269.827 181.647,-278.743 181.647,-287.974"/>
<polygon fill="black" stroke="black" points="178.147,-288.052 181.647,-298.052 185.147,-288.052 178.147,-288.052"/>
</g>
<!-- &#45;6273981622452031796 -->
<g id="node7" class="node"><title>&#45;6273981622452031796</title>
<polygon fill="none" stroke="black" points="232.666,-1063.4 138.628,-1063.4 138.628,-1027.4 232.666,-1027.4 232.666,-1063.4"/>
<text text-anchor="middle" x="185.647" y="-1041.2" font-family="Times,serif" font-size="14.00">(&#39;and_&#45;#4&#39;, 0)</text>
</g>
<!-- &#45;6273981622452031796&#45;&gt;&#45;8294352316287542701 -->
<g id="edge12" class="edge"><title>&#45;6273981622452031796&#45;&gt;&#45;8294352316287542701</title>
<path fill="none" stroke="black" d="M191.152,-1063.55C193.751,-1071.64 197.05,-1081.92 200.559,-1092.85"/>
<polygon fill="black" stroke="black" points="197.296,-1094.14 203.685,-1102.59 203.961,-1092 197.296,-1094.14"/>
</g>
<!-- &#45;240774562642344601 -->
<g id="node8" class="node"><title>&#45;240774562642344601</title>
<ellipse fill="none" stroke="black" cx="181.647" cy="-961.593" rx="29.6185" ry="29.6185"/>
<text text-anchor="middle" x="181.647" y="-957.393" font-family="Times,serif" font-size="14.00">and_</text>
</g>
<!-- &#45;240774562642344601&#45;&gt;&#45;6273981622452031796 -->
<g id="edge6" class="edge"><title>&#45;240774562642344601&#45;&gt;&#45;6273981622452031796</title>
<path fill="none" stroke="black" d="M183.069,-991.666C183.475,-999.968 183.916,-1008.98 184.316,-1017.17"/>
<polygon fill="black" stroke="black" points="180.828,-1017.51 184.813,-1027.33 187.82,-1017.17 180.828,-1017.51"/>
</g>
<!-- 2838166797870515348 -->
<g id="node9" class="node"><title>2838166797870515348</title>
<polygon fill="none" stroke="black" points="113.666,-895.784 33.6283,-895.784 33.6283,-859.784 113.666,-859.784 113.666,-895.784"/>
<text text-anchor="middle" x="73.6473" y="-873.584" font-family="Times,serif" font-size="14.00">(&#39;ge&#45;#5&#39;, 0)</text>
</g>
<!-- 2838166797870515348&#45;&gt;&#45;240774562642344601 -->
<g id="edge7" class="edge"><title>2838166797870515348&#45;&gt;&#45;240774562642344601</title>
<path fill="none" stroke="black" d="M96.2876,-895.934C111.915,-907.771 132.906,-923.671 150.16,-936.742"/>
<polygon fill="black" stroke="black" points="148.206,-939.652 158.291,-942.9 152.433,-934.072 148.206,-939.652"/>
</g>
<!-- &#45;7215420320024419025 -->
<g id="node10" class="node"><title>&#45;7215420320024419025</title>
<polygon fill="none" stroke="black" points="225.177,-895.784 138.117,-895.784 138.117,-859.784 225.177,-859.784 225.177,-895.784"/>
<text text-anchor="middle" x="181.647" y="-873.584" font-family="Times,serif" font-size="14.00">(&#39;isin&#45;#6&#39;, 0)</text>
</g>
<!-- &#45;7215420320024419025&#45;&gt;&#45;240774562642344601 -->
<g id="edge8" class="edge"><title>&#45;7215420320024419025&#45;&gt;&#45;240774562642344601</title>
<path fill="none" stroke="black" d="M181.647,-896.133C181.647,-903.55 181.647,-912.534 181.647,-921.409"/>
<polygon fill="black" stroke="black" points="178.147,-921.678 181.647,-931.678 185.147,-921.678 178.147,-921.678"/>
</g>
<!-- 4860995108086717580 -->
<g id="node11" class="node"><title>4860995108086717580</title>
<ellipse fill="none" stroke="black" cx="181.647" cy="-791.292" rx="32.4846" ry="32.4846"/>
<text text-anchor="middle" x="181.647" y="-787.092" font-family="Times,serif" font-size="14.00">apply</text>
</g>
<!-- 4860995108086717580&#45;&gt;&#45;7215420320024419025 -->
<g id="edge9" class="edge"><title>4860995108086717580&#45;&gt;&#45;7215420320024419025</title>
<path fill="none" stroke="black" d="M181.647,-824.234C181.647,-832.459 181.647,-841.239 181.647,-849.22"/>
<polygon fill="black" stroke="black" points="178.147,-849.482 181.647,-859.482 185.147,-849.482 178.147,-849.482"/>
</g>
<!-- &#45;5695489223809250350 -->
<g id="node12" class="node"><title>&#45;5695489223809250350</title>
<polygon fill="none" stroke="black" points="236.442,-722.799 126.852,-722.799 126.852,-686.799 236.442,-686.799 236.442,-722.799"/>
<text text-anchor="middle" x="181.647" y="-700.599" font-family="Times,serif" font-size="14.00">(&#39;getitem&#45;#7&#39;, 0)</text>
</g>
<!-- &#45;5695489223809250350&#45;&gt;4860995108086717580 -->
<g id="edge10" class="edge"><title>&#45;5695489223809250350&#45;&gt;4860995108086717580</title>
<path fill="none" stroke="black" d="M181.647,-722.898C181.647,-730.325 181.647,-739.383 181.647,-748.418"/>
<polygon fill="black" stroke="black" points="178.147,-748.522 181.647,-758.522 185.147,-748.522 178.147,-748.522"/>
</g>
<!-- &#45;3382799824585167792 -->
<g id="node13" class="node"><title>&#45;3382799824585167792</title>
<polygon fill="none" stroke="black" points="279.442,-1310.38 169.852,-1310.38 169.852,-1274.38 279.442,-1274.38 279.442,-1310.38"/>
<text text-anchor="middle" x="224.647" y="-1288.18" font-family="Times,serif" font-size="14.00">(&#39;getitem&#45;#8&#39;, 0)</text>
</g>
<!-- &#45;8294352316287542701&#45;&gt;&#45;3382799824585167792 -->
<g id="edge11" class="edge"><title>&#45;8294352316287542701&#45;&gt;&#45;3382799824585167792</title>
<path fill="none" stroke="black" d="M224.647,-1238.45C224.647,-1247.52 224.647,-1256.36 224.647,-1264.13"/>
<polygon fill="black" stroke="black" points="221.147,-1264.32 224.647,-1274.32 228.147,-1264.32 221.147,-1264.32"/>
</g>
<!-- 7669673349525570314 -->
<g id="node15" class="node"><title>7669673349525570314</title>
<ellipse fill="none" stroke="black" cx="181.647" cy="-95.2335" rx="95.4675" ry="95.4675"/>
<text text-anchor="middle" x="181.647" y="-91.0335" font-family="Times,serif" font-size="14.00">read_block_from_file</text>
</g>
<!-- 7669673349525570314&#45;&gt;&#45;4902172213258483727 -->
<g id="edge14" class="edge"><title>7669673349525570314&#45;&gt;&#45;4902172213258483727</title>
<path fill="none" stroke="black" d="M181.647,-190.728C181.647,-199.758 181.647,-208.332 181.647,-215.84"/>
<polygon fill="black" stroke="black" points="178.147,-216.008 181.647,-226.008 185.147,-216.008 178.147,-216.008"/>
</g>
<!-- &#45;5380186653183573247&#45;&gt;&#45;5695489223809250350 -->
<g id="edge15" class="edge"><title>&#45;5380186653183573247&#45;&gt;&#45;5695489223809250350</title>
<path fill="none" stroke="black" d="M181.647,-650.815C181.647,-659.532 181.647,-668.592 181.647,-676.703"/>
<polygon fill="black" stroke="black" points="178.147,-676.71 181.647,-686.71 185.147,-676.71 178.147,-676.71"/>
</g>
<!-- &#45;842255155252862481&#45;&gt;2838166797870515348 -->
<g id="edge17" class="edge"><title>&#45;842255155252862481&#45;&gt;2838166797870515348</title>
<path fill="none" stroke="black" d="M66.1157,-823.753C67.3338,-832.331 68.6423,-841.544 69.8213,-849.845"/>
<polygon fill="black" stroke="black" points="66.3574,-850.347 71.2288,-859.756 73.2879,-849.363 66.3574,-850.347"/>
</g>
</g>
</svg>
