<?xml version="1.0" encoding="UTF-8" standalone="no"?>
<!DOCTYPE svg PUBLIC "-//W3C//DTD SVG 1.1//EN"
 "http://www.w3.org/Graphics/SVG/1.1/DTD/svg11.dtd">
<!-- Generated by graphviz version 2.38.0 (20140413.2041)
 -->
<!-- Title: %3 Pages: 1 -->
<svg width="384pt" height="829pt"
 viewBox="0.00 0.00 384.25 829.24" xmlns="http://www.w3.org/2000/svg" xmlns:xlink="http://www.w3.org/1999/xlink">
<g id="graph0" class="graph" transform="scale(1 1) rotate(0) translate(4 825.244)">
<title>%3</title>
<polygon fill="white" stroke="none" points="-4,4 -4,-825.244 380.248,-825.244 380.248,4 -4,4"/>
<!-- &#45;6954206143068573758 -->
<g id="node1" class="node"><title>&#45;6954206143068573758</title>
<polygon fill="none" stroke="black" points="179.873,-406.645 13.26,-406.645 13.26,-370.645 179.873,-370.645 179.873,-406.645"/>
<text text-anchor="middle" x="96.5667" y="-384.445" font-family="Times,serif" font-size="14.00">(&#39;series&#45;count&#45;&#45;first&#45;#0&#39;, 0)</text>
</g>
<!-- &#45;7350806781032328260 -->
<g id="node10" class="node"><title>&#45;7350806781032328260</title>
<ellipse fill="none" stroke="black" cx="92.5667" cy="-495.78" rx="53.2703" ry="53.2703"/>
<text text-anchor="middle" x="92.5667" y="-491.58" font-family="Times,serif" font-size="14.00">lambda(...)</text>
</g>
<!-- &#45;6954206143068573758&#45;&gt;&#45;7350806781032328260 -->
<g id="edge9" class="edge"><title>&#45;6954206143068573758&#45;&gt;&#45;7350806781032328260</title>
<path fill="none" stroke="black" d="M95.9062,-407.006C95.6324,-414.201 95.2967,-423.026 94.9447,-432.276"/>
<polygon fill="black" stroke="black" points="91.4415,-432.298 94.5586,-442.424 98.4364,-432.564 91.4415,-432.298"/>
</g>
<!-- 4844165174353762033 -->
<g id="node2" class="node"><title>4844165174353762033</title>
<ellipse fill="none" stroke="black" cx="119.567" cy="-297.324" rx="37.1424" ry="37.1424"/>
<text text-anchor="middle" x="119.567" y="-293.124" font-family="Times,serif" font-size="14.00">_count</text>
</g>
<!-- 4844165174353762033&#45;&gt;&#45;6954206143068573758 -->
<g id="edge1" class="edge"><title>4844165174353762033&#45;&gt;&#45;6954206143068573758</title>
<path fill="none" stroke="black" d="M110.476,-333.626C108.156,-342.639 105.697,-352.185 103.504,-360.705"/>
<polygon fill="black" stroke="black" points="100.09,-359.925 100.986,-370.482 106.869,-361.671 100.09,-359.925"/>
</g>
<!-- &#45;8977405525559876030 -->
<g id="node3" class="node"><title>&#45;8977405525559876030</title>
<polygon fill="none" stroke="black" points="218.362,-224.003 108.772,-224.003 108.772,-188.003 218.362,-188.003 218.362,-224.003"/>
<text text-anchor="middle" x="163.567" y="-201.803" font-family="Times,serif" font-size="14.00">(&#39;getitem&#45;#1&#39;, 0)</text>
</g>
<!-- &#45;8977405525559876030&#45;&gt;4844165174353762033 -->
<g id="edge2" class="edge"><title>&#45;8977405525559876030&#45;&gt;4844165174353762033</title>
<path fill="none" stroke="black" d="M155.083,-224.225C150.834,-232.851 145.486,-243.707 140.24,-254.357"/>
<polygon fill="black" stroke="black" points="136.965,-253.086 135.685,-263.603 143.244,-256.179 136.965,-253.086"/>
</g>
<!-- 1010404749695497073 -->
<g id="node12" class="node"><title>1010404749695497073</title>
<ellipse fill="none" stroke="black" cx="253.567" cy="-297.324" rx="32.4846" ry="32.4846"/>
<text text-anchor="middle" x="253.567" y="-293.124" font-family="Times,serif" font-size="14.00">apply</text>
</g>
<!-- &#45;8977405525559876030&#45;&gt;1010404749695497073 -->
<g id="edge11" class="edge"><title>&#45;8977405525559876030&#45;&gt;1010404749695497073</title>
<path fill="none" stroke="black" d="M180.92,-224.225C193.012,-236.226 209.453,-252.543 223.636,-266.619"/>
<polygon fill="black" stroke="black" points="221.249,-269.181 230.812,-273.741 226.18,-264.213 221.249,-269.181"/>
</g>
<!-- 9204488230101878499 -->
<g id="node4" class="node"><title>9204488230101878499</title>
<polygon fill="none" stroke="black" points="365.418,-821.244 13.7151,-821.244 13.7151,-785.244 365.418,-785.244 365.418,-821.244"/>
<text text-anchor="middle" x="189.567" y="-799.044" font-family="Times,serif" font-size="14.00">(&#39;series&#45;mean&#45;#2&#45;66a74d96c6f40e46c5fba8158eae91b4&#39;, 0)</text>
</g>
<!-- 6065919578252455464 -->
<g id="node5" class="node"><title>6065919578252455464</title>
<ellipse fill="none" stroke="black" cx="189.567" cy="-703.079" rx="46.3298" ry="46.3298"/>
<text text-anchor="middle" x="189.567" y="-698.879" font-family="Times,serif" font-size="14.00">apply(...)</text>
</g>
<!-- 6065919578252455464&#45;&gt;9204488230101878499 -->
<g id="edge3" class="edge"><title>6065919578252455464&#45;&gt;9204488230101878499</title>
<path fill="none" stroke="black" d="M189.567,-749.426C189.567,-758.129 189.567,-766.99 189.567,-774.906"/>
<polygon fill="black" stroke="black" points="186.067,-775.01 189.567,-785.01 193.067,-775.01 186.067,-775.01"/>
</g>
<!-- 7080491227010899279 -->
<g id="node6" class="node"><title>7080491227010899279</title>
<polygon fill="none" stroke="black" points="376.43,-620.915 200.703,-620.915 200.703,-584.915 376.43,-584.915 376.43,-620.915"/>
<text text-anchor="middle" x="288.567" y="-598.715" font-family="Times,serif" font-size="14.00">(&#39;series&#45;sum&#45;&#45;second&#45;#3&#39;, 0)</text>
</g>
<!-- 7080491227010899279&#45;&gt;6065919578252455464 -->
<g id="edge4" class="edge"><title>7080491227010899279&#45;&gt;6065919578252455464</title>
<path fill="none" stroke="black" d="M271.322,-621.014C259.811,-632.427 244.179,-647.928 229.666,-662.319"/>
<polygon fill="black" stroke="black" points="226.843,-660.189 222.206,-669.715 231.771,-665.16 226.843,-660.189"/>
</g>
<!-- 7502236546297472607 -->
<g id="node7" class="node"><title>7502236546297472607</title>
<polygon fill="none" stroke="black" points="183.2,-620.915 -0.0667486,-620.915 -0.0667486,-584.915 183.2,-584.915 183.2,-620.915"/>
<text text-anchor="middle" x="91.5667" y="-598.715" font-family="Times,serif" font-size="14.00">(&#39;series&#45;count&#45;&#45;second&#45;#0&#39;, 0)</text>
</g>
<!-- 7502236546297472607&#45;&gt;6065919578252455464 -->
<g id="edge5" class="edge"><title>7502236546297472607&#45;&gt;6065919578252455464</title>
<path fill="none" stroke="black" d="M108.637,-621.014C120.032,-632.427 135.506,-647.928 149.873,-662.319"/>
<polygon fill="black" stroke="black" points="147.715,-665.111 157.257,-669.715 152.669,-660.166 147.715,-665.111"/>
</g>
<!-- &#45;7096048926615382927 -->
<g id="node8" class="node"><title>&#45;7096048926615382927</title>
<ellipse fill="none" stroke="black" cx="163.567" cy="-112.002" rx="40.0031" ry="40.0031"/>
<text text-anchor="middle" x="163.567" y="-107.802" font-family="Times,serif" font-size="14.00">getitem</text>
</g>
<!-- &#45;7096048926615382927&#45;&gt;&#45;8977405525559876030 -->
<g id="edge6" class="edge"><title>&#45;7096048926615382927&#45;&gt;&#45;8977405525559876030</title>
<path fill="none" stroke="black" d="M163.567,-152.018C163.567,-160.736 163.567,-169.796 163.567,-177.907"/>
<polygon fill="black" stroke="black" points="160.067,-177.914 163.567,-187.914 167.067,-177.914 160.067,-177.914"/>
</g>
<!-- &#45;4151254639528936089 -->
<g id="node9" class="node"><title>&#45;4151254639528936089</title>
<polygon fill="none" stroke="black" points="234.777,-36 92.3566,-36 92.3566,-0 234.777,-0 234.777,-36"/>
<text text-anchor="middle" x="163.567" y="-13.8" font-family="Times,serif" font-size="14.00">(&#39;from&#45;delayed&#45;#4&#39;, 0)</text>
</g>
<!-- &#45;4151254639528936089&#45;&gt;&#45;7096048926615382927 -->
<g id="edge7" class="edge"><title>&#45;4151254639528936089&#45;&gt;&#45;7096048926615382927</title>
<path fill="none" stroke="black" d="M163.567,-36.3048C163.567,-43.566 163.567,-52.4156 163.567,-61.4489"/>
<polygon fill="black" stroke="black" points="160.067,-61.651 163.567,-71.651 167.067,-61.651 160.067,-61.651"/>
</g>
<!-- &#45;7350806781032328260&#45;&gt;7502236546297472607 -->
<g id="edge8" class="edge"><title>&#45;7350806781032328260&#45;&gt;7502236546297472607</title>
<path fill="none" stroke="black" d="M92.0696,-549.039C91.9847,-557.968 91.8997,-566.908 91.8243,-574.83"/>
<polygon fill="black" stroke="black" points="88.3239,-574.871 91.7285,-584.904 95.3235,-574.938 88.3239,-574.871"/>
</g>
<!-- 6140234837006295362 -->
<g id="node11" class="node"><title>6140234837006295362</title>
<polygon fill="none" stroke="black" points="365.103,-406.645 206.03,-406.645 206.03,-370.645 365.103,-370.645 365.103,-406.645"/>
<text text-anchor="middle" x="285.567" y="-384.445" font-family="Times,serif" font-size="14.00">(&#39;series&#45;sum&#45;&#45;first&#45;#3&#39;, 0)</text>
</g>
<!-- 7724862684988973484 -->
<g id="node13" class="node"><title>7724862684988973484</title>
<ellipse fill="none" stroke="black" cx="287.567" cy="-495.78" rx="46.3298" ry="46.3298"/>
<text text-anchor="middle" x="287.567" y="-491.58" font-family="Times,serif" font-size="14.00">apply(...)</text>
</g>
<!-- 6140234837006295362&#45;&gt;7724862684988973484 -->
<g id="edge13" class="edge"><title>6140234837006295362&#45;&gt;7724862684988973484</title>
<path fill="none" stroke="black" d="M285.897,-407.006C286.067,-415.937 286.285,-427.378 286.506,-439.029"/>
<polygon fill="black" stroke="black" points="283.011,-439.331 286.701,-449.263 290.01,-439.198 283.011,-439.331"/>
</g>
<!-- 1010404749695497073&#45;&gt;6140234837006295362 -->
<g id="edge10" class="edge"><title>1010404749695497073&#45;&gt;6140234837006295362</title>
<path fill="none" stroke="black" d="M264.222,-328.066C268.013,-338.648 272.256,-350.491 275.954,-360.814"/>
<polygon fill="black" stroke="black" points="272.766,-362.293 279.434,-370.527 279.356,-359.932 272.766,-362.293"/>
</g>
<!-- 7724862684988973484&#45;&gt;7080491227010899279 -->
<g id="edge12" class="edge"><title>7724862684988973484&#45;&gt;7080491227010899279</title>
<path fill="none" stroke="black" d="M287.997,-541.976C288.102,-553.094 288.212,-564.659 288.307,-574.631"/>
<polygon fill="black" stroke="black" points="284.808,-574.764 288.403,-584.73 291.808,-574.697 284.808,-574.764"/>
</g>
</g>
</svg>
